ISO-10303-21;
HEADER;
FILE_DESCRIPTION (( 'STEP AP203' ),
    '1' );
FILE_NAME ('Part1.STEP',
    '2026-04-04T20:41:56',
    ( '' ),
    ( '' ),
    'SwSTEP 2.0',
    'SolidWorks 2026',
    '' );
FILE_SCHEMA (( 'CONFIG_CONTROL_DESIGN' ));
ENDSEC;

DATA;
#1 = PLANE ( 'NONE',  #27 ) ;
#2 = CALENDAR_DATE ( 2026, 4, 4 ) ;
#3 = ORIENTED_EDGE ( 'NONE', *, *, #258, .T. ) ;
#4 = DIRECTION ( 'NONE',  ( 1.734723475976807094E-16, 1.000000000000000000, 0.000000000000000000 ) ) ;
#5 = CIRCLE ( 'NONE', #315, 3.000000000000000444 ) ;
#6 = ORIENTED_EDGE ( 'NONE', *, *, #181, .T. ) ;
#7 = PLANE ( 'NONE',  #146 ) ;
#8 = VERTEX_POINT ( 'NONE', #94 ) ;
#9 = ADVANCED_FACE ( 'NONE', ( #165 ), #290, .F. ) ;
#10 = APPLICATION_PROTOCOL_DEFINITION ( 'international standard', 'config_control_design', 1994, #186 ) ;
#11 = ORIENTED_EDGE ( 'NONE', *, *, #176, .F. ) ;
#12 = MECHANICAL_CONTEXT ( 'NONE', #186, 'mechanical' ) ;
#13 = LINE ( 'NONE', #193, #199 ) ;
#14 = COORDINATED_UNIVERSAL_TIME_OFFSET ( 10, 0, .BEHIND. ) ;
#15 = VECTOR ( 'NONE', #141, 1000.000000000000000 ) ;
#16 = DIRECTION ( 'NONE',  ( 0.000000000000000000, -0.000000000000000000, 1.000000000000000000 ) ) ;
#17 = DATE_TIME_ROLE ( 'classification_date' ) ;
#18 = CARTESIAN_POINT ( 'NONE',  ( -4.999999999999999112, 4.999999999999999112, 0.000000000000000000 ) ) ;
#19 = EDGE_CURVE ( 'NONE', #145, #8, #92, .T. ) ;
#20 = DIRECTION ( 'NONE',  ( 0.000000000000000000, 0.000000000000000000, 1.000000000000000000 ) ) ;
#21 = CC_DESIGN_PERSON_AND_ORGANIZATION_ASSIGNMENT ( #72, #136, ( #102 ) ) ;
#22 = UNCERTAINTY_MEASURE_WITH_UNIT (LENGTH_MEASURE( 1.000000000000000082E-05 ), #275, 'distance_accuracy_value', 'NONE');
#23 = LINE ( 'NONE', #322, #174 ) ;
#24 = DIRECTION ( 'NONE',  ( -1.000000000000000000, 0.000000000000000000, 0.000000000000000000 ) ) ;
#25 = LINE ( 'NONE', #242, #272 ) ;
#26 = CC_DESIGN_PERSON_AND_ORGANIZATION_ASSIGNMENT ( #93, #134, ( #40 ) ) ;
#27 = AXIS2_PLACEMENT_3D ( 'NONE', #267, #170, #118 ) ;
#28 = ORIENTED_EDGE ( 'NONE', *, *, #183, .T. ) ;
#29 = DIRECTION ( 'NONE',  ( -0.000000000000000000, -0.000000000000000000, -1.000000000000000000 ) ) ;
#30 = ORIENTED_EDGE ( 'NONE', *, *, #258, .F. ) ;
#31 = DIRECTION ( 'NONE',  ( 1.000000000000000000, -1.734723475976807094E-16, 0.000000000000000000 ) ) ;
#32 = DIRECTION ( 'NONE',  ( -1.000000000000000000, 0.000000000000000000, 0.000000000000000000 ) ) ;
#33 = CC_DESIGN_PERSON_AND_ORGANIZATION_ASSIGNMENT ( #112, #260, ( #40 ) ) ;
#34 = DIRECTION ( 'NONE',  ( 1.000000000000000000, 0.000000000000000000, -0.000000000000000000 ) ) ;
#35 = DATE_AND_TIME ( #2, #310 ) ;
#36 = VECTOR ( 'NONE', #233, 1000.000000000000000 ) ;
#37 = ORIENTED_EDGE ( 'NONE', *, *, #168, .T. ) ;
#38 = VECTOR ( 'NONE', #49, 1000.000000000000000 ) ;
#39 = CC_DESIGN_APPROVAL ( #232, ( #304 ) ) ;
#40 = PRODUCT_DEFINITION_FORMATION_WITH_SPECIFIED_SOURCE ( 'ANY', '', #65, .NOT_KNOWN. ) ;
#41 = COORDINATED_UNIVERSAL_TIME_OFFSET ( 10, 0, .BEHIND. ) ;
#42 = LINE ( 'NONE', #135, #36 ) ;
#43 = PERSON_AND_ORGANIZATION ( #296, #48 ) ;
#44 = ORIENTED_EDGE ( 'NONE', *, *, #278, .T. ) ;
#45 = COORDINATED_UNIVERSAL_TIME_OFFSET ( 10, 0, .BEHIND. ) ;
#46 = CARTESIAN_POINT ( 'NONE',  ( 5.000000000000000000, 4.999999999999999112, 0.000000000000000000 ) ) ;
#47 = DIRECTION ( 'NONE',  ( 1.000000000000000000, 0.000000000000000000, 0.000000000000000000 ) ) ;
#48 = ORGANIZATION ( 'UNSPECIFIED', 'UNSPECIFIED', '' ) ;
#49 = DIRECTION ( 'NONE',  ( -8.673617379884035472E-17, -1.000000000000000000, 0.000000000000000000 ) ) ;
#50 = EDGE_CURVE ( 'NONE', #108, #213, #114, .T. ) ;
#51 = DIRECTION ( 'NONE',  ( -1.000000000000000000, 0.000000000000000000, 0.000000000000000000 ) ) ;
#52 = EDGE_LOOP ( 'NONE', ( #217, #86, #11, #63 ) ) ;
#53 = MANIFOLD_SOLID_BREP ( 'base', #117 ) ;
#54 = DIRECTION ( 'NONE',  ( 0.000000000000000000, 0.000000000000000000, -1.000000000000000000 ) ) ;
#55 = VERTEX_POINT ( 'NONE', #286 ) ;
#56 = CARTESIAN_POINT ( 'NONE',  ( 0.000000000000000000, 0.000000000000000000, 4.000000000000000000 ) ) ;
#57 =( NAMED_UNIT ( * ) SI_UNIT ( $, .STERADIAN. ) SOLID_ANGLE_UNIT ( ) );
#58 = ORIENTED_EDGE ( 'NONE', *, *, #181, .F. ) ;
#59 = CARTESIAN_POINT ( 'NONE',  ( 0.000000000000000000, 0.000000000000000000, 1.000000000000000000 ) ) ;
#60 = EDGE_LOOP ( 'NONE', ( #152, #198 ) ) ;
#61 = CIRCLE ( 'NONE', #101, 3.000000000000000444 ) ;
#62 = VECTOR ( 'NONE', #99, 1000.000000000000000 ) ;
#63 = ORIENTED_EDGE ( 'NONE', *, *, #50, .F. ) ;
#64 = COORDINATED_UNIVERSAL_TIME_OFFSET ( 10, 0, .BEHIND. ) ;
#65 = PRODUCT ( 'Part1', 'Part1', '', ( #12 ) ) ;
#66 = CARTESIAN_POINT ( 'NONE',  ( -5.000000000000000888, -5.000000000000000888, -2.000000000000000000 ) ) ;
#67 = CARTESIAN_POINT ( 'NONE',  ( 0.000000000000000000, 0.000000000000000000, 0.000000000000000000 ) ) ;
#68 = ORIENTED_EDGE ( 'NONE', *, *, #255, .T. ) ;
#69 = APPROVAL_ROLE ( '' ) ;
#70 = EDGE_CURVE ( 'NONE', #127, #273, #313, .T. ) ;
#71 = DIRECTION ( 'NONE',  ( 0.000000000000000000, 0.000000000000000000, 1.000000000000000000 ) ) ;
#72 = PERSON_AND_ORGANIZATION ( #296, #48 ) ;
#73 = CLOSED_SHELL ( 'NONE', ( #252, #285, #212, #317 ) ) ;
#74 = CARTESIAN_POINT ( 'NONE',  ( 5.000000000000000000, 4.999999999999999112, -2.000000000000000000 ) ) ;
#75 = LINE ( 'NONE', #100, #38 ) ;
#76 = AXIS2_PLACEMENT_3D ( 'NONE', #320, #151, #32 ) ;
#77 = LINE ( 'NONE', #243, #62 ) ;
#78 = CARTESIAN_POINT ( 'NONE',  ( 0.000000000000000000, 0.000000000000000000, -2.000000000000000000 ) ) ;
#79 = ORIENTED_EDGE ( 'NONE', *, *, #50, .T. ) ;
#80 = FACE_OUTER_BOUND ( 'NONE', #103, .T. ) ;
#81 = FACE_OUTER_BOUND ( 'NONE', #109, .T. ) ;
#82 = VECTOR ( 'NONE', #293, 1000.000000000000000 ) ;
#83 = APPROVAL_PERSON_ORGANIZATION ( #187, #311, #228 ) ;
#84 = ORIENTED_EDGE ( 'NONE', *, *, #19, .F. ) ;
#85 = ORIENTED_EDGE ( 'NONE', *, *, #220, .T. ) ;
#86 = ORIENTED_EDGE ( 'NONE', *, *, #179, .F. ) ;
#87 = AXIS2_PLACEMENT_3D ( 'NONE', #78, #54, #123 ) ;
#88 = CALENDAR_DATE ( 2026, 4, 4 ) ;
#89 = CARTESIAN_POINT ( 'NONE',  ( -5.000000000000000888, -5.000000000000000888, -2.000000000000000000 ) ) ;
#90 = DIRECTION ( 'NONE',  ( 1.000000000000000000, 0.000000000000000000, 0.000000000000000000 ) ) ;
#91 = AXIS2_PLACEMENT_3D ( 'NONE', #111, #185, #16 ) ;
#92 = LINE ( 'NONE', #142, #265 ) ;
#93 = PERSON_AND_ORGANIZATION ( #296, #48 ) ;
#94 = CARTESIAN_POINT ( 'NONE',  ( 4.999999999999999112, -5.000000000000000888, 0.000000000000000000 ) ) ;
#95 = APPROVAL_DATE_TIME ( #211, #116 ) ;
#96 = DIRECTION ( 'NONE',  ( 1.000000000000000000, 0.000000000000000000, 0.000000000000000000 ) ) ;
#97 = CIRCLE ( 'NONE', #253, 3.000000000000000444 ) ;
#98 = DESIGN_CONTEXT ( 'detailed design', #201, 'design' ) ;
#99 = DIRECTION ( 'NONE',  ( -0.000000000000000000, -0.000000000000000000, 1.000000000000000000 ) ) ;
#100 = CARTESIAN_POINT ( 'NONE',  ( 5.000000000000000000, 4.999999999999999112, -2.000000000000000000 ) ) ;
#101 = AXIS2_PLACEMENT_3D ( 'NONE', #236, #239, #200 ) ;
#102 = PRODUCT_DEFINITION ( 'UNKNOWN', '', #40, #98 ) ;
#103 = EDGE_LOOP ( 'NONE', ( #318, #3, #182, #44 ) ) ;
#104 = DIRECTION ( 'NONE',  ( -1.000000000000000000, 8.673617379884035472E-17, 0.000000000000000000 ) ) ;
#105 = DIRECTION ( 'NONE',  ( -1.000000000000000000, 0.000000000000000000, 0.000000000000000000 ) ) ;
#106 = ORIENTED_EDGE ( 'NONE', *, *, #255, .F. ) ;
#107 = PLANE ( 'NONE',  #87 ) ;
#108 = VERTEX_POINT ( 'NONE', #18 ) ;
#109 = EDGE_LOOP ( 'NONE', ( #325, #58 ) ) ;
#110 = APPROVAL_STATUS ( 'not_yet_approved' ) ;
#111 = CARTESIAN_POINT ( 'NONE',  ( 4.999999999999999112, -5.000000000000000888, -2.000000000000000000 ) ) ;
#112 = PERSON_AND_ORGANIZATION ( #296, #48 ) ;
#113 = CARTESIAN_POINT ( 'NONE',  ( 4.999999999999999112, -5.000000000000000888, 0.000000000000000000 ) ) ;
#114 = LINE ( 'NONE', #46, #158 ) ;
#115 = CARTESIAN_POINT ( 'NONE',  ( -3.000000000000000444, 0.000000000000000000, 1.000000000000000000 ) ) ;
#116 = APPROVAL ( #110, 'UNSPECIFIED' ) ;
#117 = CLOSED_SHELL ( 'NONE', ( #227, #241, #229, #9, #235, #324 ) ) ;
#118 = DIRECTION ( 'NONE',  ( 0.000000000000000000, 0.000000000000000000, -1.000000000000000000 ) ) ;
#119 = DIRECTION ( 'NONE',  ( 1.000000000000000000, -0.000000000000000000, -0.000000000000000000 ) ) ;
#120 = AXIS2_PLACEMENT_3D ( 'NONE', #240, #20, #133 ) ;
#121 = CC_DESIGN_APPROVAL ( #116, ( #102 ) ) ;
#122 = ORIENTED_EDGE ( 'NONE', *, *, #19, .T. ) ;
#123 = DIRECTION ( 'NONE',  ( -1.000000000000000000, 0.000000000000000000, 0.000000000000000000 ) ) ;
#124 = EDGE_LOOP ( 'NONE', ( #173, #106, #270, #280 ) ) ;
#125 = PLANE ( 'NONE',  #138 ) ;
#126 = PLANE ( 'NONE',  #294 ) ;
#127 = VERTEX_POINT ( 'NONE', #66 ) ;
#128 = DIRECTION ( 'NONE',  ( 0.000000000000000000, 0.000000000000000000, 1.000000000000000000 ) ) ;
#129 = APPROVAL_PERSON_ORGANIZATION ( #43, #116, #208 ) ;
#130 = CALENDAR_DATE ( 2026, 4, 4 ) ;
#131 = PRODUCT_DEFINITION_SHAPE ( 'NONE', 'NONE',  #102 ) ;
#132 = EDGE_CURVE ( 'NONE', #307, #55, #5, .T. ) ;
#133 = DIRECTION ( 'NONE',  ( 1.000000000000000000, 0.000000000000000000, 0.000000000000000000 ) ) ;
#134 = PERSON_AND_ORGANIZATION_ROLE ( 'design_supplier' ) ;
#135 = CARTESIAN_POINT ( 'NONE',  ( -3.000000000000000444, 0.000000000000000000, 4.000000000000000000 ) ) ;
#136 = PERSON_AND_ORGANIZATION_ROLE ( 'creator' ) ;
#137 = LINE ( 'NONE', #230, #15 ) ;
#138 = AXIS2_PLACEMENT_3D ( 'NONE', #301, #104, #197 ) ;
#139 = APPROVAL_PERSON_ORGANIZATION ( #262, #232, #69 ) ;
#140 = CC_DESIGN_DATE_AND_TIME_ASSIGNMENT ( #190, #17, ( #304 ) ) ;
#141 = DIRECTION ( 'NONE',  ( 1.734723475976807094E-16, 1.000000000000000000, -0.000000000000000000 ) ) ;
#142 = CARTESIAN_POINT ( 'NONE',  ( 4.999999999999999112, -5.000000000000000888, -2.000000000000000000 ) ) ;
#143 = LINE ( 'NONE', #299, #216 ) ;
#144 = CARTESIAN_POINT ( 'NONE',  ( 3.000000000000000444, 3.673940397442060361E-16, 1.000000000000000000 ) ) ;
#145 = VERTEX_POINT ( 'NONE', #207 ) ;
#146 = AXIS2_PLACEMENT_3D ( 'NONE', #222, #150, #105 ) ;
#147 = CARTESIAN_POINT ( 'NONE',  ( 5.000000000000000000, 4.999999999999999112, 0.000000000000000000 ) ) ;
#148 = VERTEX_POINT ( 'NONE', #189 ) ;
#149 = CARTESIAN_POINT ( 'NONE',  ( 3.000000000000000444, 3.673940397442060361E-16, 4.000000000000000000 ) ) ;
#150 = DIRECTION ( 'NONE',  ( 0.000000000000000000, 0.000000000000000000, -1.000000000000000000 ) ) ;
#151 = DIRECTION ( 'NONE',  ( -0.000000000000000000, -0.000000000000000000, -1.000000000000000000 ) ) ;
#152 = ORIENTED_EDGE ( 'NONE', *, *, #132, .T. ) ;
#153 = CIRCLE ( 'NONE', #120, 3.000000000000000444 ) ;
#154 = VERTEX_POINT ( 'NONE', #74 ) ;
#155 = CC_DESIGN_PERSON_AND_ORGANIZATION_ASSIGNMENT ( #312, #238, ( #65 ) ) ;
#156 = MANIFOLD_SOLID_BREP ( 'part', #73 ) ;
#157 = PERSON_AND_ORGANIZATION_ROLE ( 'classification_officer' ) ;
#158 = VECTOR ( 'NONE', #205, 1000.000000000000000 ) ;
#159 = LOCAL_TIME ( 10, 41, 56.00000000000000000, #257 ) ;
#160 = CARTESIAN_POINT ( 'NONE',  ( 0.000000000000000000, 0.000000000000000000, 4.000000000000000000 ) ) ;
#161 = CALENDAR_DATE ( 2026, 4, 4 ) ;
#162 = EDGE_CURVE ( 'NONE', #273, #108, #169, .T. ) ;
#163 = DIRECTION ( 'NONE',  ( 0.000000000000000000, 0.000000000000000000, 1.000000000000000000 ) ) ;
#164 = DATE_AND_TIME ( #130, #309 ) ;
#165 = FACE_OUTER_BOUND ( 'NONE', #247, .T. ) ;
#166 = AXIS2_PLACEMENT_3D ( 'NONE', #300, #31, #4 ) ;
#167 = CC_DESIGN_APPROVAL ( #311, ( #40 ) ) ;
#168 = EDGE_CURVE ( 'NONE', #307, #180, #42, .T. ) ;
#169 = LINE ( 'NONE', #259, #237 ) ;
#170 = DIRECTION ( 'NONE',  ( 0.000000000000000000, -1.000000000000000000, -0.000000000000000000 ) ) ;
#171 = CARTESIAN_POINT ( 'NONE',  ( -5.000000000000000888, -5.000000000000000888, 0.000000000000000000 ) ) ;
#172 = FACE_OUTER_BOUND ( 'NONE', #124, .T. ) ;
#173 = ORIENTED_EDGE ( 'NONE', *, *, #162, .T. ) ;
#174 = VECTOR ( 'NONE', #297, 1000.000000000000000 ) ;
#175 = LOCAL_TIME ( 10, 41, 56.00000000000000000, #41 ) ;
#176 = EDGE_CURVE ( 'NONE', #213, #8, #13, .T. ) ;
#177 = FACE_OUTER_BOUND ( 'NONE', #60, .T. ) ;
#178 = EDGE_LOOP ( 'NONE', ( #224, #85, #6, #219 ) ) ;
#179 = EDGE_CURVE ( 'NONE', #8, #273, #288, .T. ) ;
#180 = VERTEX_POINT ( 'NONE', #115 ) ;
#181 = EDGE_CURVE ( 'NONE', #249, #180, #97, .T. ) ;
#182 = ORIENTED_EDGE ( 'NONE', *, *, #269, .T. ) ;
#183 = EDGE_CURVE ( 'NONE', #180, #249, #153, .T. ) ;
#184 = APPROVAL_DATE_TIME ( #319, #311 ) ;
#185 = DIRECTION ( 'NONE',  ( 0.000000000000000000, 1.000000000000000000, 0.000000000000000000 ) ) ;
#186 = APPLICATION_CONTEXT ( 'configuration controlled 3d designs of mechanical parts and assemblies' ) ;
#187 = PERSON_AND_ORGANIZATION ( #296, #48 ) ;
#188 = EDGE_CURVE ( 'NONE', #127, #148, #137, .T. ) ;
#189 = CARTESIAN_POINT ( 'NONE',  ( -4.999999999999999112, 4.999999999999999112, -2.000000000000000000 ) ) ;
#190 = DATE_AND_TIME ( #88, #159 ) ;
#191 = CARTESIAN_POINT ( 'NONE',  ( 0.000000000000000000, 0.000000000000000000, 1.000000000000000000 ) ) ;
#192 = SECURITY_CLASSIFICATION_LEVEL ( 'unclassified' ) ;
#193 = CARTESIAN_POINT ( 'NONE',  ( 5.000000000000000000, 4.999999999999999112, 0.000000000000000000 ) ) ;
#194 = DIRECTION ( 'NONE',  ( -0.000000000000000000, -0.000000000000000000, -1.000000000000000000 ) ) ;
#195 = CYLINDRICAL_SURFACE ( 'NONE', #76, 3.000000000000000444 ) ;
#196 = EDGE_LOOP ( 'NONE', ( #251, #244, #37, #28 ) ) ;
#197 = DIRECTION ( 'NONE',  ( -8.673617379884035472E-17, -1.000000000000000000, 0.000000000000000000 ) ) ;
#198 = ORIENTED_EDGE ( 'NONE', *, *, #204, .T. ) ;
#199 = VECTOR ( 'NONE', #316, 1000.000000000000000 ) ;
#200 = DIRECTION ( 'NONE',  ( 1.000000000000000000, 0.000000000000000000, 0.000000000000000000 ) ) ;
#201 = APPLICATION_CONTEXT ( 'configuration controlled 3d designs of mechanical parts and assemblies' ) ;
#202 = EDGE_LOOP ( 'NONE', ( #226, #84, #210, #303 ) ) ;
#203 = ORIENTED_EDGE ( 'NONE', *, *, #179, .T. ) ;
#204 = EDGE_CURVE ( 'NONE', #55, #307, #61, .T. ) ;
#205 = DIRECTION ( 'NONE',  ( 1.000000000000000000, -0.000000000000000000, -0.000000000000000000 ) ) ;
#206 = CALENDAR_DATE ( 2026, 4, 4 ) ;
#207 = CARTESIAN_POINT ( 'NONE',  ( 4.999999999999999112, -5.000000000000000888, -2.000000000000000000 ) ) ;
#208 = APPROVAL_ROLE ( '' ) ;
#209 = AXIS2_PLACEMENT_3D ( 'NONE', #67, #314, #90 ) ;
#210 = ORIENTED_EDGE ( 'NONE', *, *, #269, .F. ) ;
#211 = DATE_AND_TIME ( #206, #175 ) ;
#212 = ADVANCED_FACE ( 'NONE', ( #177 ), #305, .T. ) ;
#213 = VERTEX_POINT ( 'NONE', #147 ) ;
#214 = CYLINDRICAL_SURFACE ( 'NONE', #321, 3.000000000000000444 ) ;
#215 = FACE_OUTER_BOUND ( 'NONE', #196, .T. ) ;
#216 = VECTOR ( 'NONE', #24, 1000.000000000000000 ) ;
#217 = ORIENTED_EDGE ( 'NONE', *, *, #162, .F. ) ;
#218 = FACE_OUTER_BOUND ( 'NONE', #254, .T. ) ;
#219 = ORIENTED_EDGE ( 'NONE', *, *, #168, .F. ) ;
#220 = EDGE_CURVE ( 'NONE', #55, #249, #221, .T. ) ;
#221 = LINE ( 'NONE', #149, #281 ) ;
#222 = CARTESIAN_POINT ( 'NONE',  ( 0.000000000000000000, 0.000000000000000000, 0.000000000000000000 ) ) ;
#223 = ADVANCED_BREP_SHAPE_REPRESENTATION ( 'Part1', ( #156, #53, #209 ), #282 ) ;
#224 = ORIENTED_EDGE ( 'NONE', *, *, #204, .F. ) ;
#225 = FACE_OUTER_BOUND ( 'NONE', #52, .T. ) ;
#226 = ORIENTED_EDGE ( 'NONE', *, *, #176, .T. ) ;
#227 = ADVANCED_FACE ( 'NONE', ( #172 ), #248, .F. ) ;
#228 = APPROVAL_ROLE ( '' ) ;
#229 = ADVANCED_FACE ( 'NONE', ( #245 ), #125, .F. ) ;
#230 = CARTESIAN_POINT ( 'NONE',  ( -4.999999999999999112, 4.999999999999999112, -2.000000000000000000 ) ) ;
#231 = DATE_TIME_ROLE ( 'creation_date' ) ;
#232 = APPROVAL ( #289, 'UNSPECIFIED' ) ;
#233 = DIRECTION ( 'NONE',  ( -0.000000000000000000, -0.000000000000000000, -1.000000000000000000 ) ) ;
#234 = PERSON_AND_ORGANIZATION ( #296, #48 ) ;
#235 = ADVANCED_FACE ( 'NONE', ( #80 ), #107, .T. ) ;
#236 = CARTESIAN_POINT ( 'NONE',  ( 0.000000000000000000, 0.000000000000000000, 4.000000000000000000 ) ) ;
#237 = VECTOR ( 'NONE', #261, 1000.000000000000000 ) ;
#238 = PERSON_AND_ORGANIZATION_ROLE ( 'design_owner' ) ;
#239 = DIRECTION ( 'NONE',  ( 0.000000000000000000, 0.000000000000000000, 1.000000000000000000 ) ) ;
#240 = CARTESIAN_POINT ( 'NONE',  ( 0.000000000000000000, 0.000000000000000000, 1.000000000000000000 ) ) ;
#241 = ADVANCED_FACE ( 'NONE', ( #218 ), #1, .F. ) ;
#242 = CARTESIAN_POINT ( 'NONE',  ( 5.000000000000000000, 4.999999999999999112, -2.000000000000000000 ) ) ;
#243 = CARTESIAN_POINT ( 'NONE',  ( 5.000000000000000000, 4.999999999999999112, -2.000000000000000000 ) ) ;
#244 = ORIENTED_EDGE ( 'NONE', *, *, #132, .F. ) ;
#245 = FACE_OUTER_BOUND ( 'NONE', #202, .T. ) ;
#246 = PRODUCT_RELATED_PRODUCT_CATEGORY ( 'detail', '', ( #65 ) ) ;
#247 = EDGE_LOOP ( 'NONE', ( #203, #306, #276, #122 ) ) ;
#248 = PLANE ( 'NONE',  #166 ) ;
#249 = VERTEX_POINT ( 'NONE', #144 ) ;
#250 = CARTESIAN_POINT ( 'NONE',  ( -3.000000000000000444, 0.000000000000000000, 4.000000000000000000 ) ) ;
#251 = ORIENTED_EDGE ( 'NONE', *, *, #220, .F. ) ;
#252 = ADVANCED_FACE ( 'NONE', ( #323 ), #214, .T. ) ;
#253 = AXIS2_PLACEMENT_3D ( 'NONE', #191, #71, #47 ) ;
#254 = EDGE_LOOP ( 'NONE', ( #79, #279, #30, #68 ) ) ;
#255 = EDGE_CURVE ( 'NONE', #148, #108, #23, .T. ) ;
#256 = LOCAL_TIME ( 10, 41, 56.00000000000000000, #14 ) ;
#257 = COORDINATED_UNIVERSAL_TIME_OFFSET ( 10, 0, .BEHIND. ) ;
#258 = EDGE_CURVE ( 'NONE', #148, #154, #25, .T. ) ;
#259 = CARTESIAN_POINT ( 'NONE',  ( -4.999999999999999112, 4.999999999999999112, 0.000000000000000000 ) ) ;
#260 = PERSON_AND_ORGANIZATION_ROLE ( 'creator' ) ;
#261 = DIRECTION ( 'NONE',  ( 1.734723475976807094E-16, 1.000000000000000000, -0.000000000000000000 ) ) ;
#262 = PERSON_AND_ORGANIZATION ( #296, #48 ) ;
#263 = EDGE_CURVE ( 'NONE', #154, #213, #77, .T. ) ;
#264 = DIRECTION ( 'NONE',  ( -0.000000000000000000, -0.000000000000000000, 1.000000000000000000 ) ) ;
#265 = VECTOR ( 'NONE', #264, 1000.000000000000000 ) ;
#266 = DIRECTION ( 'NONE',  ( -1.000000000000000000, 0.000000000000000000, 0.000000000000000000 ) ) ;
#267 = CARTESIAN_POINT ( 'NONE',  ( 5.000000000000000000, 4.999999999999999112, -2.000000000000000000 ) ) ;
#268 = CARTESIAN_POINT ( 'NONE',  ( 0.000000000000000000, 0.000000000000000000, 4.000000000000000000 ) ) ;
#269 = EDGE_CURVE ( 'NONE', #154, #145, #75, .T. ) ;
#270 = ORIENTED_EDGE ( 'NONE', *, *, #188, .F. ) ;
#271 = DIRECTION ( 'NONE',  ( 1.000000000000000000, 0.000000000000000000, -0.000000000000000000 ) ) ;
#272 = VECTOR ( 'NONE', #119, 1000.000000000000000 ) ;
#273 = VERTEX_POINT ( 'NONE', #171 ) ;
#274 = DIRECTION ( 'NONE',  ( 0.000000000000000000, 0.000000000000000000, 1.000000000000000000 ) ) ;
#275 =( LENGTH_UNIT ( ) NAMED_UNIT ( * ) SI_UNIT ( .MILLI., .METRE. ) );
#276 = ORIENTED_EDGE ( 'NONE', *, *, #278, .F. ) ;
#277 = SHAPE_DEFINITION_REPRESENTATION ( #131, #223 ) ;
#278 = EDGE_CURVE ( 'NONE', #145, #127, #143, .T. ) ;
#279 = ORIENTED_EDGE ( 'NONE', *, *, #263, .F. ) ;
#280 = ORIENTED_EDGE ( 'NONE', *, *, #70, .T. ) ;
#281 = VECTOR ( 'NONE', #29, 1000.000000000000000 ) ;
#282 =( GEOMETRIC_REPRESENTATION_CONTEXT ( 3 ) GLOBAL_UNCERTAINTY_ASSIGNED_CONTEXT ( ( #22 ) ) GLOBAL_UNIT_ASSIGNED_CONTEXT ( ( #275, #302, #57 ) ) REPRESENTATION_CONTEXT ( 'NONE', 'WORKASPACE' ) );
#283 = APPROVAL_DATE_TIME ( #35, #232 ) ;
#284 = CC_DESIGN_PERSON_AND_ORGANIZATION_ASSIGNMENT ( #234, #157, ( #304 ) ) ;
#285 = ADVANCED_FACE ( 'NONE', ( #215 ), #195, .T. ) ;
#286 = CARTESIAN_POINT ( 'NONE',  ( 3.000000000000000444, 3.673940397442060361E-16, 4.000000000000000000 ) ) ;
#287 = APPROVAL_STATUS ( 'not_yet_approved' ) ;
#288 = LINE ( 'NONE', #113, #298 ) ;
#289 = APPROVAL_STATUS ( 'not_yet_approved' ) ;
#290 = PLANE ( 'NONE',  #91 ) ;
#291 = APPLICATION_PROTOCOL_DEFINITION ( 'international standard', 'config_control_design', 1994, #201 ) ;
#292 = CC_DESIGN_DATE_AND_TIME_ASSIGNMENT ( #164, #231, ( #102 ) ) ;
#293 = DIRECTION ( 'NONE',  ( -0.000000000000000000, -0.000000000000000000, 1.000000000000000000 ) ) ;
#294 = AXIS2_PLACEMENT_3D ( 'NONE', #59, #128, #34 ) ;
#295 = CC_DESIGN_SECURITY_CLASSIFICATION ( #304, ( #40 ) ) ;
#296 = PERSON ( 'UNSPECIFIED', 'UNSPECIFIED', 'UNSPECIFIED', ('UNSPECIFIED'), ('UNSPECIFIED'), ('UNSPECIFIED') ) ;
#297 = DIRECTION ( 'NONE',  ( -0.000000000000000000, -0.000000000000000000, 1.000000000000000000 ) ) ;
#298 = VECTOR ( 'NONE', #266, 1000.000000000000000 ) ;
#299 = CARTESIAN_POINT ( 'NONE',  ( 4.999999999999999112, -5.000000000000000888, -2.000000000000000000 ) ) ;
#300 = CARTESIAN_POINT ( 'NONE',  ( -4.999999999999999112, 4.999999999999999112, -2.000000000000000000 ) ) ;
#301 = CARTESIAN_POINT ( 'NONE',  ( 5.000000000000000000, 4.999999999999999112, -2.000000000000000000 ) ) ;
#302 =( NAMED_UNIT ( * ) PLANE_ANGLE_UNIT ( ) SI_UNIT ( $, .RADIAN. ) );
#303 = ORIENTED_EDGE ( 'NONE', *, *, #263, .T. ) ;
#304 = SECURITY_CLASSIFICATION ( '', '', #192 ) ;
#305 = PLANE ( 'NONE',  #308 ) ;
#306 = ORIENTED_EDGE ( 'NONE', *, *, #70, .F. ) ;
#307 = VERTEX_POINT ( 'NONE', #250 ) ;
#308 = AXIS2_PLACEMENT_3D ( 'NONE', #56, #274, #271 ) ;
#309 = LOCAL_TIME ( 10, 41, 56.00000000000000000, #64 ) ;
#310 = LOCAL_TIME ( 10, 41, 56.00000000000000000, #45 ) ;
#311 = APPROVAL ( #287, 'UNSPECIFIED' ) ;
#312 = PERSON_AND_ORGANIZATION ( #296, #48 ) ;
#313 = LINE ( 'NONE', #89, #82 ) ;
#314 = DIRECTION ( 'NONE',  ( 0.000000000000000000, 0.000000000000000000, 1.000000000000000000 ) ) ;
#315 = AXIS2_PLACEMENT_3D ( 'NONE', #160, #163, #96 ) ;
#316 = DIRECTION ( 'NONE',  ( -8.673617379884035472E-17, -1.000000000000000000, 0.000000000000000000 ) ) ;
#317 = ADVANCED_FACE ( 'NONE', ( #81 ), #126, .F. ) ;
#318 = ORIENTED_EDGE ( 'NONE', *, *, #188, .T. ) ;
#319 = DATE_AND_TIME ( #161, #256 ) ;
#320 = CARTESIAN_POINT ( 'NONE',  ( 0.000000000000000000, 0.000000000000000000, 4.000000000000000000 ) ) ;
#321 = AXIS2_PLACEMENT_3D ( 'NONE', #268, #194, #51 ) ;
#322 = CARTESIAN_POINT ( 'NONE',  ( -4.999999999999999112, 4.999999999999999112, -2.000000000000000000 ) ) ;
#323 = FACE_OUTER_BOUND ( 'NONE', #178, .T. ) ;
#324 = ADVANCED_FACE ( 'NONE', ( #225 ), #7, .F. ) ;
#325 = ORIENTED_EDGE ( 'NONE', *, *, #183, .F. ) ;
ENDSEC;
END-ISO-10303-21;
