ISO-10303-21;
HEADER;
FILE_DESCRIPTION (( 'STEP AP203' ),
    '1' );
FILE_NAME ('point_01_baseline_Rx0_Ry0_Rz0.step',
    '2026-07-04T22:13:23',
    ( '' ),
    ( '' ),
    'SwSTEP 2.0',
    'SolidWorks 2026',
    '' );
FILE_SCHEMA (( 'CONFIG_CONTROL_DESIGN' ));
ENDSEC;

DATA;
#1 = CARTESIAN_POINT ( 'NONE',  ( 5.000000000000000000, 4.999999999999999112, 0.000000000000000000 ) ) ;
#2 = PERSON_AND_ORGANIZATION_ROLE ( 'creator' ) ;
#3 = ORIENTED_EDGE ( 'NONE', *, *, #147, .F. ) ;
#4 = COORDINATED_UNIVERSAL_TIME_OFFSET ( 8, 0, .BEHIND. ) ;
#5 = CLOSED_SHELL ( 'NONE', ( #192, #141, #175, #263, #183, #278 ) ) ;
#6 = AXIS2_PLACEMENT_3D ( 'NONE', #115, #170, #40 ) ;
#7 = MECHANICAL_CONTEXT ( 'NONE', #131, 'mechanical' ) ;
#8 = EDGE_LOOP ( 'NONE', ( #289, #308, #262, #241 ) ) ;
#9 = COORDINATED_UNIVERSAL_TIME_OFFSET ( 8, 0, .BEHIND. ) ;
#10 = ORIENTED_EDGE ( 'NONE', *, *, #88, .T. ) ;
#11 = DIRECTION ( 'NONE',  ( 0.000000000000000000, 0.000000000000000000, 1.000000000000000000 ) ) ;
#12 = EDGE_CURVE ( 'NONE', #165, #22, #266, .T. ) ;
#13 = EDGE_LOOP ( 'NONE', ( #84, #214, #139, #90 ) ) ;
#14 = DIRECTION ( 'NONE',  ( 1.000000000000000000, -0.000000000000000000, -0.000000000000000000 ) ) ;
#15 = APPROVAL_PERSON_ORGANIZATION ( #64, #153, #244 ) ;
#16 = CARTESIAN_POINT ( 'NONE',  ( 4.999999999999999112, -5.000000000000000888, -2.000000000000000000 ) ) ;
#17 = ADVANCED_FACE ( 'NONE', ( #311 ), #298, .T. ) ;
#18 = ORIENTED_EDGE ( 'NONE', *, *, #41, .T. ) ;
#19 = CC_DESIGN_PERSON_AND_ORGANIZATION_ASSIGNMENT ( #306, #2, ( #225 ) ) ;
#20 = ORIENTED_EDGE ( 'NONE', *, *, #88, .F. ) ;
#21 = AXIS2_PLACEMENT_3D ( 'NONE', #277, #247, #274 ) ;
#22 = VERTEX_POINT ( 'NONE', #290 ) ;
#23 = PLANE ( 'NONE',  #52 ) ;
#24 = CARTESIAN_POINT ( 'NONE',  ( -4.999999999999999112, 4.999999999999999112, -2.000000000000000000 ) ) ;
#25 = AXIS2_PLACEMENT_3D ( 'NONE', #125, #176, #322 ) ;
#26 = CARTESIAN_POINT ( 'NONE',  ( 5.000000000000000000, 4.999999999999999112, -2.000000000000000000 ) ) ;
#27 = PLANE ( 'NONE',  #205 ) ;
#28 = MANIFOLD_SOLID_BREP ( 'part', #154 ) ;
#29 = CC_DESIGN_PERSON_AND_ORGANIZATION_ASSIGNMENT ( #105, #208, ( #225 ) ) ;
#30 = PLANE ( 'NONE',  #195 ) ;
#31 = APPROVAL_ROLE ( '' ) ;
#32 = ADVANCED_FACE ( 'NONE', ( #92 ), #198, .T. ) ;
#33 = CALENDAR_DATE ( 2026, 4, 7 ) ;
#34 = VECTOR ( 'NONE', #191, 1000.000000000000000 ) ;
#35 = ORIENTED_EDGE ( 'NONE', *, *, #161, .T. ) ;
#36 = APPROVAL_STATUS ( 'not_yet_approved' ) ;
#37 = APPROVAL_PERSON_ORGANIZATION ( #132, #151, #31 ) ;
#38 = CARTESIAN_POINT ( 'NONE',  ( -3.000000000000000444, 0.000000000000000000, 4.000000000000000000 ) ) ;
#39 = ORIENTED_EDGE ( 'NONE', *, *, #320, .F. ) ;
#40 = DIRECTION ( 'NONE',  ( 1.000000000000000000, 0.000000000000000000, -0.000000000000000000 ) ) ;
#41 = EDGE_CURVE ( 'NONE', #230, #110, #71, .T. ) ;
#42 = DIRECTION ( 'NONE',  ( -1.000000000000000000, 0.000000000000000000, 0.000000000000000000 ) ) ;
#43 = DIRECTION ( 'NONE',  ( -1.000000000000000000, 0.000000000000000000, 0.000000000000000000 ) ) ;
#44 = ORIENTED_EDGE ( 'NONE', *, *, #234, .T. ) ;
#45 = CC_DESIGN_PERSON_AND_ORGANIZATION_ASSIGNMENT ( #83, #279, ( #200 ) ) ;
#46 = DIRECTION ( 'NONE',  ( -8.673617379884035472E-17, -1.000000000000000000, 0.000000000000000000 ) ) ;
#47 = LINE ( 'NONE', #179, #67 ) ;
#48 = DESIGN_CONTEXT ( 'detailed design', #102, 'design' ) ;
#49 = VECTOR ( 'NONE', #312, 1000.000000000000000 ) ;
#50 = LINE ( 'NONE', #206, #62 ) ;
#51 = VECTOR ( 'NONE', #148, 1000.000000000000000 ) ;
#52 = AXIS2_PLACEMENT_3D ( 'NONE', #223, #321, #98 ) ;
#53 = LINE ( 'NONE', #276, #209 ) ;
#54 = LINE ( 'NONE', #24, #95 ) ;
#55 = DATE_AND_TIME ( #113, #219 ) ;
#56 = PERSON_AND_ORGANIZATION ( #238, #180 ) ;
#57 = LOCAL_TIME ( 15, 13, 23.00000000000000000, #313 ) ;
#58 = APPLICATION_PROTOCOL_DEFINITION ( 'international standard', 'config_control_design', 1994, #102 ) ;
#59 = ORIENTED_EDGE ( 'NONE', *, *, #65, .F. ) ;
#60 = ORIENTED_EDGE ( 'NONE', *, *, #240, .F. ) ;
#61 = EDGE_CURVE ( 'NONE', #110, #106, #197, .T. ) ;
#62 = VECTOR ( 'NONE', #46, 1000.000000000000000 ) ;
#63 = VERTEX_POINT ( 'NONE', #193 ) ;
#64 = PERSON_AND_ORGANIZATION ( #238, #180 ) ;
#65 = EDGE_CURVE ( 'NONE', #230, #68, #97, .T. ) ;
#66 = CARTESIAN_POINT ( 'NONE',  ( 5.000000000000000000, 4.999999999999999112, -2.000000000000000000 ) ) ;
#67 = VECTOR ( 'NONE', #157, 1000.000000000000000 ) ;
#68 = VERTEX_POINT ( 'NONE', #66 ) ;
#69 = CALENDAR_DATE ( 2026, 4, 7 ) ;
#70 = CARTESIAN_POINT ( 'NONE',  ( 5.000000000000000000, 4.999999999999999112, 0.000000000000000000 ) ) ;
#71 = LINE ( 'NONE', #169, #114 ) ;
#72 = ADVANCED_FACE ( 'NONE', ( #291 ), #172, .F. ) ;
#73 = LINE ( 'NONE', #80, #302 ) ;
#74 = PRODUCT_RELATED_PRODUCT_CATEGORY ( 'detail', '', ( #200 ) ) ;
#75 = DIRECTION ( 'NONE',  ( 1.000000000000000000, 0.000000000000000000, -0.000000000000000000 ) ) ;
#76 = CARTESIAN_POINT ( 'NONE',  ( 0.000000000000000000, 0.000000000000000000, 4.000000000000000000 ) ) ;
#77 = EDGE_CURVE ( 'NONE', #217, #93, #144, .T. ) ;
#78 = FACE_OUTER_BOUND ( 'NONE', #236, .T. ) ;
#79 = CC_DESIGN_APPROVAL ( #151, ( #207 ) ) ;
#80 = CARTESIAN_POINT ( 'NONE',  ( 4.999999999999999112, -5.000000000000000888, 0.000000000000000000 ) ) ;
#81 = LOCAL_TIME ( 15, 13, 23.00000000000000000, #9 ) ;
#82 =( NAMED_UNIT ( * ) PLANE_ANGLE_UNIT ( ) SI_UNIT ( $, .RADIAN. ) );
#83 = PERSON_AND_ORGANIZATION ( #238, #180 ) ;
#84 = ORIENTED_EDGE ( 'NONE', *, *, #120, .T. ) ;
#85 = SECURITY_CLASSIFICATION_LEVEL ( 'unclassified' ) ;
#86 = ORIENTED_EDGE ( 'NONE', *, *, #222, .T. ) ;
#87 = CC_DESIGN_APPROVAL ( #296, ( #225 ) ) ;
#88 = EDGE_CURVE ( 'NONE', #93, #212, #146, .T. ) ;
#89 = ORIENTED_EDGE ( 'NONE', *, *, #12, .T. ) ;
#90 = ORIENTED_EDGE ( 'NONE', *, *, #126, .T. ) ;
#91 = CC_DESIGN_PERSON_AND_ORGANIZATION_ASSIGNMENT ( #159, #210, ( #207 ) ) ;
#92 = FACE_OUTER_BOUND ( 'NONE', #304, .T. ) ;
#93 = VERTEX_POINT ( 'NONE', #117 ) ;
#94 = ORIENTED_EDGE ( 'NONE', *, *, #41, .F. ) ;
#95 = VECTOR ( 'NONE', #158, 1000.000000000000000 ) ;
#96 = CARTESIAN_POINT ( 'NONE',  ( 3.000000000000000444, 3.673940397442060361E-16, 4.000000000000000000 ) ) ;
#97 = LINE ( 'NONE', #239, #251 ) ;
#98 = DIRECTION ( 'NONE',  ( 0.000000000000000000, -0.000000000000000000, 1.000000000000000000 ) ) ;
#99 = CARTESIAN_POINT ( 'NONE',  ( 5.000000000000000000, 4.999999999999999112, -2.000000000000000000 ) ) ;
#100 = CARTESIAN_POINT ( 'NONE',  ( 0.000000000000000000, 0.000000000000000000, -2.000000000000000000 ) ) ;
#101 = PLANE ( 'NONE',  #122 ) ;
#102 = APPLICATION_CONTEXT ( 'configuration controlled 3d designs of mechanical parts and assemblies' ) ;
#103 = AXIS2_PLACEMENT_3D ( 'NONE', #282, #237, #309 ) ;
#104 = CARTESIAN_POINT ( 'NONE',  ( 4.999999999999999112, -5.000000000000000888, -2.000000000000000000 ) ) ;
#105 = PERSON_AND_ORGANIZATION ( #238, #180 ) ;
#106 = VERTEX_POINT ( 'NONE', #243 ) ;
#107 = VECTOR ( 'NONE', #42, 1000.000000000000000 ) ;
#108 = EDGE_CURVE ( 'NONE', #283, #63, #216, .T. ) ;
#109 = APPROVAL_DATE_TIME ( #55, #151 ) ;
#110 = VERTEX_POINT ( 'NONE', #295 ) ;
#111 = APPROVAL_ROLE ( '' ) ;
#112 = ORIENTED_EDGE ( 'NONE', *, *, #215, .F. ) ;
#113 = CALENDAR_DATE ( 2026, 4, 7 ) ;
#114 = VECTOR ( 'NONE', #314, 1000.000000000000000 ) ;
#115 = CARTESIAN_POINT ( 'NONE',  ( 0.000000000000000000, 0.000000000000000000, 1.000000000000000000 ) ) ;
#116 = LOCAL_TIME ( 15, 13, 23.00000000000000000, #256 ) ;
#117 = CARTESIAN_POINT ( 'NONE',  ( -5.000000000000000888, -5.000000000000000888, -2.000000000000000000 ) ) ;
#118 = DATE_TIME_ROLE ( 'classification_date' ) ;
#119 = ORIENTED_EDGE ( 'NONE', *, *, #234, .F. ) ;
#120 = EDGE_CURVE ( 'NONE', #106, #264, #201, .T. ) ;
#121 = DIRECTION ( 'NONE',  ( -0.000000000000000000, -0.000000000000000000, -1.000000000000000000 ) ) ;
#122 = AXIS2_PLACEMENT_3D ( 'NONE', #26, #128, #224 ) ;
#123 = SECURITY_CLASSIFICATION ( '', '', #85 ) ;
#124 = ORIENTED_EDGE ( 'NONE', *, *, #77, .F. ) ;
#125 = CARTESIAN_POINT ( 'NONE',  ( 0.000000000000000000, 0.000000000000000000, 4.000000000000000000 ) ) ;
#126 = EDGE_CURVE ( 'NONE', #68, #106, #299, .T. ) ;
#127 = DIRECTION ( 'NONE',  ( 0.000000000000000000, 0.000000000000000000, 1.000000000000000000 ) ) ;
#128 = DIRECTION ( 'NONE',  ( -1.000000000000000000, 8.673617379884035472E-17, 0.000000000000000000 ) ) ;
#129 = CARTESIAN_POINT ( 'NONE',  ( -4.999999999999999112, 4.999999999999999112, -2.000000000000000000 ) ) ;
#130 = DIRECTION ( 'NONE',  ( 0.000000000000000000, 0.000000000000000000, 1.000000000000000000 ) ) ;
#131 = APPLICATION_CONTEXT ( 'configuration controlled 3d designs of mechanical parts and assemblies' ) ;
#132 = PERSON_AND_ORGANIZATION ( #238, #180 ) ;
#133 = ORIENTED_EDGE ( 'NONE', *, *, #320, .T. ) ;
#134 = ADVANCED_BREP_SHAPE_REPRESENTATION ( 'point_01_baseline_Rx0_Ry0_Rz0', ( #248, #28, #315 ), #233 ) ;
#135 = ORIENTED_EDGE ( 'NONE', *, *, #147, .T. ) ;
#136 = PLANE ( 'NONE',  #103 ) ;
#137 = UNCERTAINTY_MEASURE_WITH_UNIT (LENGTH_MEASURE( 1.000000000000000082E-05 ), #235, 'distance_accuracy_value', 'NONE');
#138 = PERSON_AND_ORGANIZATION ( #238, #180 ) ;
#139 = ORIENTED_EDGE ( 'NONE', *, *, #250, .F. ) ;
#140 = FACE_OUTER_BOUND ( 'NONE', #199, .T. ) ;
#141 = ADVANCED_FACE ( 'NONE', ( #78 ), #226, .F. ) ;
#142 = CARTESIAN_POINT ( 'NONE',  ( 0.000000000000000000, 0.000000000000000000, 4.000000000000000000 ) ) ;
#143 = DATE_AND_TIME ( #69, #57 ) ;
#144 = LINE ( 'NONE', #16, #107 ) ;
#145 = DATE_AND_TIME ( #33, #116 ) ;
#146 = LINE ( 'NONE', #173, #51 ) ;
#147 = EDGE_CURVE ( 'NONE', #165, #283, #171, .T. ) ;
#148 = DIRECTION ( 'NONE',  ( -0.000000000000000000, -0.000000000000000000, 1.000000000000000000 ) ) ;
#149 = CARTESIAN_POINT ( 'NONE',  ( 0.000000000000000000, 0.000000000000000000, 1.000000000000000000 ) ) ;
#150 = FACE_OUTER_BOUND ( 'NONE', #281, .T. ) ;
#151 = APPROVAL ( #36, 'UNSPECIFIED' ) ;
#152 = FACE_OUTER_BOUND ( 'NONE', #13, .T. ) ;
#153 = APPROVAL ( #288, 'UNSPECIFIED' ) ;
#154 = CLOSED_SHELL ( 'NONE', ( #32, #17, #181, #72 ) ) ;
#155 = VECTOR ( 'NONE', #301, 1000.000000000000000 ) ;
#156 = DIRECTION ( 'NONE',  ( 0.000000000000000000, 0.000000000000000000, -1.000000000000000000 ) ) ;
#157 = DIRECTION ( 'NONE',  ( -0.000000000000000000, -0.000000000000000000, 1.000000000000000000 ) ) ;
#158 = DIRECTION ( 'NONE',  ( 1.734723475976807094E-16, 1.000000000000000000, -0.000000000000000000 ) ) ;
#159 = PERSON_AND_ORGANIZATION ( #238, #180 ) ;
#160 = PERSON_AND_ORGANIZATION_ROLE ( 'classification_officer' ) ;
#161 = EDGE_CURVE ( 'NONE', #217, #264, #47, .T. ) ;
#162 = DIRECTION ( 'NONE',  ( 1.000000000000000000, 0.000000000000000000, 0.000000000000000000 ) ) ;
#163 = ORIENTED_EDGE ( 'NONE', *, *, #222, .F. ) ;
#164 = CARTESIAN_POINT ( 'NONE',  ( 4.999999999999999112, -5.000000000000000888, 0.000000000000000000 ) ) ;
#165 = VERTEX_POINT ( 'NONE', #252 ) ;
#166 = CIRCLE ( 'NONE', #275, 3.000000000000000444 ) ;
#167 = ORIENTED_EDGE ( 'NONE', *, *, #168, .F. ) ;
#168 = EDGE_CURVE ( 'NONE', #212, #110, #53, .T. ) ;
#169 = CARTESIAN_POINT ( 'NONE',  ( -4.999999999999999112, 4.999999999999999112, -2.000000000000000000 ) ) ;
#170 = DIRECTION ( 'NONE',  ( 0.000000000000000000, 0.000000000000000000, 1.000000000000000000 ) ) ;
#171 = CIRCLE ( 'NONE', #25, 3.000000000000000444 ) ;
#172 = PLANE ( 'NONE',  #6 ) ;
#173 = CARTESIAN_POINT ( 'NONE',  ( -5.000000000000000888, -5.000000000000000888, -2.000000000000000000 ) ) ;
#174 = ORIENTED_EDGE ( 'NONE', *, *, #126, .F. ) ;
#175 = ADVANCED_FACE ( 'NONE', ( #152 ), #101, .F. ) ;
#176 = DIRECTION ( 'NONE',  ( 0.000000000000000000, 0.000000000000000000, 1.000000000000000000 ) ) ;
#177 = DIRECTION ( 'NONE',  ( -1.000000000000000000, 0.000000000000000000, 0.000000000000000000 ) ) ;
#178 = CARTESIAN_POINT ( 'NONE',  ( -5.000000000000000888, -5.000000000000000888, 0.000000000000000000 ) ) ;
#179 = CARTESIAN_POINT ( 'NONE',  ( 4.999999999999999112, -5.000000000000000888, -2.000000000000000000 ) ) ;
#180 = ORGANIZATION ( 'UNSPECIFIED', 'UNSPECIFIED', '' ) ;
#181 = ADVANCED_FACE ( 'NONE', ( #204 ), #303, .T. ) ;
#182 = CARTESIAN_POINT ( 'NONE',  ( -4.999999999999999112, 4.999999999999999112, -2.000000000000000000 ) ) ;
#183 = ADVANCED_FACE ( 'NONE', ( #324 ), #30, .T. ) ;
#184 =( NAMED_UNIT ( * ) SI_UNIT ( $, .STERADIAN. ) SOLID_ANGLE_UNIT ( ) );
#185 = CC_DESIGN_SECURITY_CLASSIFICATION ( #123, ( #225 ) ) ;
#186 = DATE_AND_TIME ( #307, #81 ) ;
#187 = ORIENTED_EDGE ( 'NONE', *, *, #215, .T. ) ;
#188 = DIRECTION ( 'NONE',  ( 0.000000000000000000, 0.000000000000000000, 1.000000000000000000 ) ) ;
#189 = CIRCLE ( 'NONE', #287, 3.000000000000000444 ) ;
#190 = EDGE_LOOP ( 'NONE', ( #119, #39 ) ) ;
#191 = DIRECTION ( 'NONE',  ( 1.000000000000000000, -0.000000000000000000, -0.000000000000000000 ) ) ;
#192 = ADVANCED_FACE ( 'NONE', ( #253 ), #27, .F. ) ;
#193 = CARTESIAN_POINT ( 'NONE',  ( -3.000000000000000444, 0.000000000000000000, 1.000000000000000000 ) ) ;
#194 = VECTOR ( 'NONE', #325, 1000.000000000000000 ) ;
#195 = AXIS2_PLACEMENT_3D ( 'NONE', #100, #228, #177 ) ;
#196 = CC_DESIGN_PERSON_AND_ORGANIZATION_ASSIGNMENT ( #56, #160, ( #123 ) ) ;
#197 = LINE ( 'NONE', #70, #34 ) ;
#198 = CYLINDRICAL_SURFACE ( 'NONE', #297, 3.000000000000000444 ) ;
#199 = EDGE_LOOP ( 'NONE', ( #167, #112, #246, #232 ) ) ;
#200 = PRODUCT ( 'point_01_baseline_Rx0_Ry0_Rz0', 'point_01_baseline_Rx0_Ry0_Rz0', '', ( #7 ) ) ;
#201 = LINE ( 'NONE', #1, #194 ) ;
#202 = DIRECTION ( 'NONE',  ( 1.734723475976807094E-16, 1.000000000000000000, -0.000000000000000000 ) ) ;
#203 = DIRECTION ( 'NONE',  ( 1.734723475976807094E-16, 1.000000000000000000, 0.000000000000000000 ) ) ;
#204 = FACE_OUTER_BOUND ( 'NONE', #242, .T. ) ;
#205 = AXIS2_PLACEMENT_3D ( 'NONE', #129, #272, #203 ) ;
#206 = CARTESIAN_POINT ( 'NONE',  ( 5.000000000000000000, 4.999999999999999112, -2.000000000000000000 ) ) ;
#207 = PRODUCT_DEFINITION ( 'UNKNOWN', '', #225, #48 ) ;
#208 = PERSON_AND_ORGANIZATION_ROLE ( 'design_supplier' ) ;
#209 = VECTOR ( 'NONE', #202, 1000.000000000000000 ) ;
#210 = PERSON_AND_ORGANIZATION_ROLE ( 'creator' ) ;
#211 = DATE_TIME_ROLE ( 'creation_date' ) ;
#212 = VERTEX_POINT ( 'NONE', #178 ) ;
#213 = ORIENTED_EDGE ( 'NONE', *, *, #168, .T. ) ;
#214 = ORIENTED_EDGE ( 'NONE', *, *, #161, .F. ) ;
#215 = EDGE_CURVE ( 'NONE', #264, #212, #73, .T. ) ;
#216 = LINE ( 'NONE', #220, #293 ) ;
#217 = VERTEX_POINT ( 'NONE', #104 ) ;
#218 = AXIS2_PLACEMENT_3D ( 'NONE', #268, #121, #265 ) ;
#219 = LOCAL_TIME ( 15, 13, 23.00000000000000000, #261 ) ;
#220 = CARTESIAN_POINT ( 'NONE',  ( -3.000000000000000444, 0.000000000000000000, 4.000000000000000000 ) ) ;
#221 = DIRECTION ( 'NONE',  ( -0.000000000000000000, -0.000000000000000000, -1.000000000000000000 ) ) ;
#222 = EDGE_CURVE ( 'NONE', #283, #165, #166, .T. ) ;
#223 = CARTESIAN_POINT ( 'NONE',  ( 4.999999999999999112, -5.000000000000000888, -2.000000000000000000 ) ) ;
#224 = DIRECTION ( 'NONE',  ( -8.673617379884035472E-17, -1.000000000000000000, 0.000000000000000000 ) ) ;
#225 = PRODUCT_DEFINITION_FORMATION_WITH_SPECIFIED_SOURCE ( 'ANY', '', #200, .NOT_KNOWN. ) ;
#226 = PLANE ( 'NONE',  #305 ) ;
#227 = CARTESIAN_POINT ( 'NONE',  ( 5.000000000000000000, 4.999999999999999112, -2.000000000000000000 ) ) ;
#228 = DIRECTION ( 'NONE',  ( 0.000000000000000000, 0.000000000000000000, -1.000000000000000000 ) ) ;
#229 = APPROVAL_DATE_TIME ( #280, #296 ) ;
#230 = VERTEX_POINT ( 'NONE', #182 ) ;
#231 = DIRECTION ( 'NONE',  ( 1.000000000000000000, 0.000000000000000000, 0.000000000000000000 ) ) ;
#232 = ORIENTED_EDGE ( 'NONE', *, *, #61, .F. ) ;
#233 =( GEOMETRIC_REPRESENTATION_CONTEXT ( 3 ) GLOBAL_UNCERTAINTY_ASSIGNED_CONTEXT ( ( #137 ) ) GLOBAL_UNIT_ASSIGNED_CONTEXT ( ( #235, #82, #184 ) ) REPRESENTATION_CONTEXT ( 'NONE', 'WORKASPACE' ) );
#234 = EDGE_CURVE ( 'NONE', #63, #22, #245, .T. ) ;
#235 =( LENGTH_UNIT ( ) NAMED_UNIT ( * ) SI_UNIT ( .MILLI., .METRE. ) );
#236 = EDGE_LOOP ( 'NONE', ( #257, #174, #59, #18 ) ) ;
#237 = DIRECTION ( 'NONE',  ( 0.000000000000000000, 0.000000000000000000, -1.000000000000000000 ) ) ;
#238 = PERSON ( 'UNSPECIFIED', 'UNSPECIFIED', 'UNSPECIFIED', ('UNSPECIFIED'), ('UNSPECIFIED'), ('UNSPECIFIED') ) ;
#239 = CARTESIAN_POINT ( 'NONE',  ( 5.000000000000000000, 4.999999999999999112, -2.000000000000000000 ) ) ;
#240 = EDGE_CURVE ( 'NONE', #93, #230, #54, .T. ) ;
#241 = ORIENTED_EDGE ( 'NONE', *, *, #77, .T. ) ;
#242 = EDGE_LOOP ( 'NONE', ( #86, #135 ) ) ;
#243 = CARTESIAN_POINT ( 'NONE',  ( 5.000000000000000000, 4.999999999999999112, 0.000000000000000000 ) ) ;
#244 = APPROVAL_ROLE ( '' ) ;
#245 = CIRCLE ( 'NONE', #21, 3.000000000000000444 ) ;
#246 = ORIENTED_EDGE ( 'NONE', *, *, #120, .F. ) ;
#247 = DIRECTION ( 'NONE',  ( 0.000000000000000000, 0.000000000000000000, 1.000000000000000000 ) ) ;
#248 = MANIFOLD_SOLID_BREP ( 'base', #5 ) ;
#249 = DIRECTION ( 'NONE',  ( 1.000000000000000000, 0.000000000000000000, 0.000000000000000000 ) ) ;
#250 = EDGE_CURVE ( 'NONE', #68, #217, #50, .T. ) ;
#251 = VECTOR ( 'NONE', #14, 1000.000000000000000 ) ;
#252 = CARTESIAN_POINT ( 'NONE',  ( 3.000000000000000444, 3.673940397442060361E-16, 4.000000000000000000 ) ) ;
#253 = FACE_OUTER_BOUND ( 'NONE', #294, .T. ) ;
#254 = DIRECTION ( 'NONE',  ( 0.000000000000000000, -1.000000000000000000, -0.000000000000000000 ) ) ;
#255 = CALENDAR_DATE ( 2026, 4, 7 ) ;
#256 = COORDINATED_UNIVERSAL_TIME_OFFSET ( 8, 0, .BEHIND. ) ;
#257 = ORIENTED_EDGE ( 'NONE', *, *, #61, .T. ) ;
#258 = CARTESIAN_POINT ( 'NONE',  ( 0.000000000000000000, 0.000000000000000000, 0.000000000000000000 ) ) ;
#259 = ORIENTED_EDGE ( 'NONE', *, *, #12, .F. ) ;
#260 = AXIS2_PLACEMENT_3D ( 'NONE', #300, #127, #75 ) ;
#261 = COORDINATED_UNIVERSAL_TIME_OFFSET ( 8, 0, .BEHIND. ) ;
#262 = ORIENTED_EDGE ( 'NONE', *, *, #250, .T. ) ;
#263 = ADVANCED_FACE ( 'NONE', ( #150 ), #23, .F. ) ;
#264 = VERTEX_POINT ( 'NONE', #164 ) ;
#265 = DIRECTION ( 'NONE',  ( -1.000000000000000000, 0.000000000000000000, 0.000000000000000000 ) ) ;
#266 = LINE ( 'NONE', #96, #49 ) ;
#267 = CC_DESIGN_APPROVAL ( #153, ( #123 ) ) ;
#268 = CARTESIAN_POINT ( 'NONE',  ( 0.000000000000000000, 0.000000000000000000, 4.000000000000000000 ) ) ;
#269 = ORIENTED_EDGE ( 'NONE', *, *, #108, .F. ) ;
#270 = CC_DESIGN_DATE_AND_TIME_ASSIGNMENT ( #145, #118, ( #123 ) ) ;
#271 = DIRECTION ( 'NONE',  ( -1.000000000000000000, 0.000000000000000000, 0.000000000000000000 ) ) ;
#272 = DIRECTION ( 'NONE',  ( 1.000000000000000000, -1.734723475976807094E-16, 0.000000000000000000 ) ) ;
#273 = CC_DESIGN_DATE_AND_TIME_ASSIGNMENT ( #186, #211, ( #207 ) ) ;
#274 = DIRECTION ( 'NONE',  ( 1.000000000000000000, 0.000000000000000000, 0.000000000000000000 ) ) ;
#275 = AXIS2_PLACEMENT_3D ( 'NONE', #76, #130, #249 ) ;
#276 = CARTESIAN_POINT ( 'NONE',  ( -4.999999999999999112, 4.999999999999999112, 0.000000000000000000 ) ) ;
#277 = CARTESIAN_POINT ( 'NONE',  ( 0.000000000000000000, 0.000000000000000000, 1.000000000000000000 ) ) ;
#278 = ADVANCED_FACE ( 'NONE', ( #140 ), #136, .F. ) ;
#279 = PERSON_AND_ORGANIZATION_ROLE ( 'design_owner' ) ;
#280 = DATE_AND_TIME ( #255, #323 ) ;
#281 = EDGE_LOOP ( 'NONE', ( #187, #20, #124, #35 ) ) ;
#282 = CARTESIAN_POINT ( 'NONE',  ( 0.000000000000000000, 0.000000000000000000, 0.000000000000000000 ) ) ;
#283 = VERTEX_POINT ( 'NONE', #38 ) ;
#284 = APPROVAL_STATUS ( 'not_yet_approved' ) ;
#285 = ORIENTED_EDGE ( 'NONE', *, *, #108, .T. ) ;
#286 = APPLICATION_PROTOCOL_DEFINITION ( 'international standard', 'config_control_design', 1994, #131 ) ;
#287 = AXIS2_PLACEMENT_3D ( 'NONE', #149, #188, #162 ) ;
#288 = APPROVAL_STATUS ( 'not_yet_approved' ) ;
#289 = ORIENTED_EDGE ( 'NONE', *, *, #240, .T. ) ;
#290 = CARTESIAN_POINT ( 'NONE',  ( 3.000000000000000444, 3.673940397442060361E-16, 1.000000000000000000 ) ) ;
#291 = FACE_OUTER_BOUND ( 'NONE', #190, .T. ) ;
#292 = PRODUCT_DEFINITION_SHAPE ( 'NONE', 'NONE',  #207 ) ;
#293 = VECTOR ( 'NONE', #318, 1000.000000000000000 ) ;
#294 = EDGE_LOOP ( 'NONE', ( #213, #94, #60, #10 ) ) ;
#295 = CARTESIAN_POINT ( 'NONE',  ( -4.999999999999999112, 4.999999999999999112, 0.000000000000000000 ) ) ;
#296 = APPROVAL ( #284, 'UNSPECIFIED' ) ;
#297 = AXIS2_PLACEMENT_3D ( 'NONE', #142, #221, #43 ) ;
#298 = CYLINDRICAL_SURFACE ( 'NONE', #218, 3.000000000000000444 ) ;
#299 = LINE ( 'NONE', #227, #155 ) ;
#300 = CARTESIAN_POINT ( 'NONE',  ( 0.000000000000000000, 0.000000000000000000, 4.000000000000000000 ) ) ;
#301 = DIRECTION ( 'NONE',  ( -0.000000000000000000, -0.000000000000000000, 1.000000000000000000 ) ) ;
#302 = VECTOR ( 'NONE', #271, 1000.000000000000000 ) ;
#303 = PLANE ( 'NONE',  #260 ) ;
#304 = EDGE_LOOP ( 'NONE', ( #3, #89, #133, #269 ) ) ;
#305 = AXIS2_PLACEMENT_3D ( 'NONE', #99, #254, #156 ) ;
#306 = PERSON_AND_ORGANIZATION ( #238, #180 ) ;
#307 = CALENDAR_DATE ( 2026, 4, 7 ) ;
#308 = ORIENTED_EDGE ( 'NONE', *, *, #65, .T. ) ;
#309 = DIRECTION ( 'NONE',  ( -1.000000000000000000, 0.000000000000000000, 0.000000000000000000 ) ) ;
#310 = APPROVAL_DATE_TIME ( #143, #153 ) ;
#311 = FACE_OUTER_BOUND ( 'NONE', #319, .T. ) ;
#312 = DIRECTION ( 'NONE',  ( -0.000000000000000000, -0.000000000000000000, -1.000000000000000000 ) ) ;
#313 = COORDINATED_UNIVERSAL_TIME_OFFSET ( 8, 0, .BEHIND. ) ;
#314 = DIRECTION ( 'NONE',  ( -0.000000000000000000, -0.000000000000000000, 1.000000000000000000 ) ) ;
#315 = AXIS2_PLACEMENT_3D ( 'NONE', #258, #11, #231 ) ;
#316 = SHAPE_DEFINITION_REPRESENTATION ( #292, #134 ) ;
#317 = APPROVAL_PERSON_ORGANIZATION ( #138, #296, #111 ) ;
#318 = DIRECTION ( 'NONE',  ( -0.000000000000000000, -0.000000000000000000, -1.000000000000000000 ) ) ;
#319 = EDGE_LOOP ( 'NONE', ( #259, #163, #285, #44 ) ) ;
#320 = EDGE_CURVE ( 'NONE', #22, #63, #189, .T. ) ;
#321 = DIRECTION ( 'NONE',  ( 0.000000000000000000, 1.000000000000000000, 0.000000000000000000 ) ) ;
#322 = DIRECTION ( 'NONE',  ( 1.000000000000000000, 0.000000000000000000, 0.000000000000000000 ) ) ;
#323 = LOCAL_TIME ( 15, 13, 23.00000000000000000, #4 ) ;
#324 = FACE_OUTER_BOUND ( 'NONE', #8, .T. ) ;
#325 = DIRECTION ( 'NONE',  ( -8.673617379884035472E-17, -1.000000000000000000, 0.000000000000000000 ) ) ;
ENDSEC;
END-ISO-10303-21;
