ISO-10303-21;
HEADER;
FILE_DESCRIPTION (( 'STEP AP203' ),
    '1' );
FILE_NAME ('point_02_x45_Rx45_Ry0_Rz0.step',
    '2026-07-04T22:19:20',
    ( '' ),
    ( '' ),
    'SwSTEP 2.0',
    'SolidWorks 2026',
    '' );
FILE_SCHEMA (( 'CONFIG_CONTROL_DESIGN' ));
ENDSEC;

DATA;
#1 = APPROVAL_ROLE ( '' ) ;
#2 = EDGE_CURVE ( 'NONE', #160, #143, #262, .T. ) ;
#3 = VECTOR ( 'NONE', #9, 1000.000000000000000 ) ;
#4 = DIRECTION ( 'NONE',  ( 0.000000000000000000, -0.000000000000000000, 1.000000000000000000 ) ) ;
#5 = LINE ( 'NONE', #61, #51 ) ;
#6 = ORIENTED_EDGE ( 'NONE', *, *, #64, .T. ) ;
#7 = CARTESIAN_POINT ( 'NONE',  ( 5.000000000000000000, 4.999999999999999112, -2.000000000000000000 ) ) ;
#8 = CLOSED_SHELL ( 'NONE', ( #94, #146, #296, #169 ) ) ;
#9 = DIRECTION ( 'NONE',  ( 1.734723475976807094E-16, 1.000000000000000000, -0.000000000000000000 ) ) ;
#10 = VERTEX_POINT ( 'NONE', #140 ) ;
#11 = DIRECTION ( 'NONE',  ( -1.000000000000000000, 0.000000000000000000, 0.000000000000000000 ) ) ;
#12 = PLANE ( 'NONE',  #193 ) ;
#13 = VERTEX_POINT ( 'NONE', #206 ) ;
#14 = MANIFOLD_SOLID_BREP ( 'base', #135 ) ;
#15 = VERTEX_POINT ( 'NONE', #259 ) ;
#16 = VECTOR ( 'NONE', #217, 1000.000000000000000 ) ;
#17 = ORIENTED_EDGE ( 'NONE', *, *, #149, .T. ) ;
#18 = CARTESIAN_POINT ( 'NONE',  ( -2.121320343559642829, -2.121320343559642829, 4.000000000000000000 ) ) ;
#19 = APPROVAL ( #79, 'UNSPECIFIED' ) ;
#20 = APPLICATION_CONTEXT ( 'configuration controlled 3d designs of mechanical parts and assemblies' ) ;
#21 = DIRECTION ( 'NONE',  ( 1.734723475976807094E-16, 1.000000000000000000, 0.000000000000000000 ) ) ;
#22 = MECHANICAL_CONTEXT ( 'NONE', #20, 'mechanical' ) ;
#23 = PERSON_AND_ORGANIZATION_ROLE ( 'classification_officer' ) ;
#24 = DESIGN_CONTEXT ( 'detailed design', #225, 'design' ) ;
#25 = COORDINATED_UNIVERSAL_TIME_OFFSET ( 8, 0, .BEHIND. ) ;
#26 = ADVANCED_BREP_SHAPE_REPRESENTATION ( 'point_02_x45_Rx45_Ry0_Rz0', ( #14, #123, #152 ), #72 ) ;
#27 = APPROVAL_DATE_TIME ( #174, #170 ) ;
#28 = SECURITY_CLASSIFICATION ( '', '', #124 ) ;
#29 = DIRECTION ( 'NONE',  ( -8.673617379884035472E-17, -1.000000000000000000, 0.000000000000000000 ) ) ;
#30 = DATE_AND_TIME ( #249, #116 ) ;
#31 = CYLINDRICAL_SURFACE ( 'NONE', #107, 3.000000000000000444 ) ;
#32 = FACE_OUTER_BOUND ( 'NONE', #89, .T. ) ;
#33 = ORIENTED_EDGE ( 'NONE', *, *, #36, .T. ) ;
#34 = DIRECTION ( 'NONE',  ( 1.000000000000000000, -0.000000000000000000, -0.000000000000000000 ) ) ;
#35 = AXIS2_PLACEMENT_3D ( 'NONE', #265, #311, #214 ) ;
#36 = EDGE_CURVE ( 'NONE', #13, #162, #216, .T. ) ;
#37 = DIRECTION ( 'NONE',  ( -1.000000000000000000, 0.000000000000000000, 0.000000000000000000 ) ) ;
#38 = DIRECTION ( 'NONE',  ( 0.7071067811865474617, 0.7071067811865474617, 0.000000000000000000 ) ) ;
#39 = DIRECTION ( 'NONE',  ( -1.000000000000000000, 0.000000000000000000, 0.000000000000000000 ) ) ;
#40 = ORGANIZATION ( 'UNSPECIFIED', 'UNSPECIFIED', '' ) ;
#41 = PLANE ( 'NONE',  #248 ) ;
#42 = ORIENTED_EDGE ( 'NONE', *, *, #232, .T. ) ;
#43 = CC_DESIGN_PERSON_AND_ORGANIZATION_ASSIGNMENT ( #106, #23, ( #28 ) ) ;
#44 = ADVANCED_FACE ( 'NONE', ( #90 ), #118, .F. ) ;
#45 = DIRECTION ( 'NONE',  ( -0.000000000000000000, -0.000000000000000000, 1.000000000000000000 ) ) ;
#46 = ORIENTED_EDGE ( 'NONE', *, *, #87, .T. ) ;
#47 = ORIENTED_EDGE ( 'NONE', *, *, #316, .T. ) ;
#48 = DIRECTION ( 'NONE',  ( 0.000000000000000000, -0.000000000000000000, -1.000000000000000000 ) ) ;
#49 = DIRECTION ( 'NONE',  ( 0.7071067811865474617, 0.7071067811865474617, 0.000000000000000000 ) ) ;
#50 = DIRECTION ( 'NONE',  ( 0.7071067811865474617, 0.7071067811865474617, 0.000000000000000000 ) ) ;
#51 = VECTOR ( 'NONE', #82, 1000.000000000000000 ) ;
#52 = PERSON_AND_ORGANIZATION ( #270, #40 ) ;
#53 = ADVANCED_FACE ( 'NONE', ( #257 ), #41, .F. ) ;
#54 = VECTOR ( 'NONE', #29, 1000.000000000000000 ) ;
#55 = CARTESIAN_POINT ( 'NONE',  ( -4.999999999999999112, 4.999999999999999112, -2.000000000000000000 ) ) ;
#56 = PRODUCT_DEFINITION ( 'UNKNOWN', '', #201, #24 ) ;
#57 = APPLICATION_PROTOCOL_DEFINITION ( 'international standard', 'config_control_design', 1994, #225 ) ;
#58 = ADVANCED_FACE ( 'NONE', ( #190 ), #12, .F. ) ;
#59 = APPLICATION_PROTOCOL_DEFINITION ( 'international standard', 'config_control_design', 1994, #20 ) ;
#60 = VECTOR ( 'NONE', #158, 1000.000000000000000 ) ;
#61 = CARTESIAN_POINT ( 'NONE',  ( 5.000000000000000000, 4.999999999999999112, 0.000000000000000000 ) ) ;
#62 = ORIENTED_EDGE ( 'NONE', *, *, #232, .F. ) ;
#63 = EDGE_LOOP ( 'NONE', ( #156, #230, #307, #164 ) ) ;
#64 = EDGE_CURVE ( 'NONE', #143, #10, #239, .T. ) ;
#65 = CC_DESIGN_APPROVAL ( #110, ( #28 ) ) ;
#66 = EDGE_LOOP ( 'NONE', ( #260, #33, #113, #117 ) ) ;
#67 = VERTEX_POINT ( 'NONE', #109 ) ;
#68 = EDGE_LOOP ( 'NONE', ( #165, #70 ) ) ;
#69 = ORIENTED_EDGE ( 'NONE', *, *, #64, .F. ) ;
#70 = ORIENTED_EDGE ( 'NONE', *, *, #180, .F. ) ;
#71 = FACE_OUTER_BOUND ( 'NONE', #68, .T. ) ;
#72 =( GEOMETRIC_REPRESENTATION_CONTEXT ( 3 ) GLOBAL_UNCERTAINTY_ASSIGNED_CONTEXT ( ( #111 ) ) GLOBAL_UNIT_ASSIGNED_CONTEXT ( ( #228, #278, #181 ) ) REPRESENTATION_CONTEXT ( 'NONE', 'WORKASPACE' ) );
#73 = CARTESIAN_POINT ( 'NONE',  ( 0.000000000000000000, 0.000000000000000000, 4.000000000000000000 ) ) ;
#74 = LINE ( 'NONE', #105, #98 ) ;
#75 = EDGE_CURVE ( 'NONE', #285, #160, #306, .T. ) ;
#76 = PERSON_AND_ORGANIZATION_ROLE ( 'design_owner' ) ;
#77 = APPROVAL_PERSON_ORGANIZATION ( #322, #19, #103 ) ;
#78 = APPROVAL_ROLE ( '' ) ;
#79 = APPROVAL_STATUS ( 'not_yet_approved' ) ;
#80 = DIRECTION ( 'NONE',  ( 0.000000000000000000, -0.000000000000000000, 1.000000000000000000 ) ) ;
#81 = APPROVAL_PERSON_ORGANIZATION ( #298, #110, #1 ) ;
#82 = DIRECTION ( 'NONE',  ( 1.000000000000000000, -0.000000000000000000, -0.000000000000000000 ) ) ;
#83 = PRODUCT ( 'point_02_x45_Rx45_Ry0_Rz0', 'point_02_x45_Rx45_Ry0_Rz0', '', ( #22 ) ) ;
#84 = CARTESIAN_POINT ( 'NONE',  ( 5.000000000000000000, 4.999999999999999112, -2.000000000000000000 ) ) ;
#85 = CARTESIAN_POINT ( 'NONE',  ( 0.000000000000000000, 0.000000000000000000, 0.000000000000000000 ) ) ;
#86 = AXIS2_PLACEMENT_3D ( 'NONE', #168, #275, #50 ) ;
#87 = EDGE_CURVE ( 'NONE', #67, #10, #209, .T. ) ;
#88 = CARTESIAN_POINT ( 'NONE',  ( 4.999999999999999112, -5.000000000000000888, -2.000000000000000000 ) ) ;
#89 = EDGE_LOOP ( 'NONE', ( #208, #115 ) ) ;
#90 = FACE_OUTER_BOUND ( 'NONE', #254, .T. ) ;
#91 = AXIS2_PLACEMENT_3D ( 'NONE', #192, #240, #49 ) ;
#92 = FACE_OUTER_BOUND ( 'NONE', #66, .T. ) ;
#93 = ORIENTED_EDGE ( 'NONE', *, *, #292, .F. ) ;
#94 = ADVANCED_FACE ( 'NONE', ( #92 ), #287, .T. ) ;
#95 = DIRECTION ( 'NONE',  ( 0.000000000000000000, 0.000000000000000000, -1.000000000000000000 ) ) ;
#96 = EDGE_LOOP ( 'NONE', ( #312, #142, #263, #308 ) ) ;
#97 = CARTESIAN_POINT ( 'NONE',  ( -5.000000000000000888, -5.000000000000000888, -2.000000000000000000 ) ) ;
#98 = VECTOR ( 'NONE', #325, 1000.000000000000000 ) ;
#99 = CARTESIAN_POINT ( 'NONE',  ( 5.000000000000000000, 4.999999999999999112, -2.000000000000000000 ) ) ;
#100 = APPROVAL_STATUS ( 'not_yet_approved' ) ;
#101 = PERSON_AND_ORGANIZATION_ROLE ( 'creator' ) ;
#102 = APPROVAL_PERSON_ORGANIZATION ( #52, #170, #78 ) ;
#103 = APPROVAL_ROLE ( '' ) ;
#104 = DATE_TIME_ROLE ( 'creation_date' ) ;
#105 = CARTESIAN_POINT ( 'NONE',  ( 4.999999999999999112, -5.000000000000000888, 0.000000000000000000 ) ) ;
#106 = PERSON_AND_ORGANIZATION ( #270, #40 ) ;
#107 = AXIS2_PLACEMENT_3D ( 'NONE', #145, #291, #224 ) ;
#108 = EDGE_CURVE ( 'NONE', #163, #191, #129, .T. ) ;
#109 = CARTESIAN_POINT ( 'NONE',  ( -4.999999999999999112, 4.999999999999999112, -2.000000000000000000 ) ) ;
#110 = APPROVAL ( #100, 'UNSPECIFIED' ) ;
#111 = UNCERTAINTY_MEASURE_WITH_UNIT (LENGTH_MEASURE( 1.000000000000000082E-05 ), #228, 'distance_accuracy_value', 'NONE');
#112 = ORIENTED_EDGE ( 'NONE', *, *, #108, .F. ) ;
#113 = ORIENTED_EDGE ( 'NONE', *, *, #180, .T. ) ;
#114 = DIRECTION ( 'NONE',  ( -1.000000000000000000, 8.673617379884035472E-17, 0.000000000000000000 ) ) ;
#115 = ORIENTED_EDGE ( 'NONE', *, *, #200, .T. ) ;
#116 = LOCAL_TIME ( 15, 19, 20.00000000000000000, #324 ) ;
#117 = ORIENTED_EDGE ( 'NONE', *, *, #133, .F. ) ;
#118 = PLANE ( 'NONE',  #35 ) ;
#119 = LINE ( 'NONE', #55, #16 ) ;
#120 = CC_DESIGN_DATE_AND_TIME_ASSIGNMENT ( #277, #245, ( #28 ) ) ;
#121 = FACE_OUTER_BOUND ( 'NONE', #212, .T. ) ;
#122 = VECTOR ( 'NONE', #302, 1000.000000000000000 ) ;
#123 = MANIFOLD_SOLID_BREP ( 'part', #8 ) ;
#124 = SECURITY_CLASSIFICATION_LEVEL ( 'unclassified' ) ;
#125 = COORDINATED_UNIVERSAL_TIME_OFFSET ( 8, 0, .BEHIND. ) ;
#126 = DIRECTION ( 'NONE',  ( 0.000000000000000000, 0.000000000000000000, 1.000000000000000000 ) ) ;
#127 = CIRCLE ( 'NONE', #91, 3.000000000000000444 ) ;
#128 = SHAPE_DEFINITION_REPRESENTATION ( #319, #26 ) ;
#129 = LINE ( 'NONE', #268, #54 ) ;
#130 = CALENDAR_DATE ( 2026, 4, 7 ) ;
#131 = CARTESIAN_POINT ( 'NONE',  ( 0.000000000000000000, 0.000000000000000000, 1.000000000000000000 ) ) ;
#132 = CARTESIAN_POINT ( 'NONE',  ( 0.000000000000000000, 0.000000000000000000, 4.000000000000000000 ) ) ;
#133 = EDGE_CURVE ( 'NONE', #184, #15, #241, .T. ) ;
#134 = PLANE ( 'NONE',  #148 ) ;
#135 = CLOSED_SHELL ( 'NONE', ( #202, #207, #58, #44, #215, #53 ) ) ;
#136 = DIRECTION ( 'NONE',  ( 0.000000000000000000, 0.000000000000000000, -1.000000000000000000 ) ) ;
#137 = LINE ( 'NONE', #7, #318 ) ;
#138 = ORIENTED_EDGE ( 'NONE', *, *, #244, .F. ) ;
#139 = AXIS2_PLACEMENT_3D ( 'NONE', #205, #136, #37 ) ;
#140 = CARTESIAN_POINT ( 'NONE',  ( -4.999999999999999112, 4.999999999999999112, 0.000000000000000000 ) ) ;
#141 = ORIENTED_EDGE ( 'NONE', *, *, #108, .T. ) ;
#142 = ORIENTED_EDGE ( 'NONE', *, *, #173, .F. ) ;
#143 = VERTEX_POINT ( 'NONE', #289 ) ;
#144 = DIRECTION ( 'NONE',  ( -8.673617379884035472E-17, -1.000000000000000000, 0.000000000000000000 ) ) ;
#145 = CARTESIAN_POINT ( 'NONE',  ( 0.000000000000000000, 0.000000000000000000, 4.000000000000000000 ) ) ;
#146 = ADVANCED_FACE ( 'NONE', ( #151 ), #31, .T. ) ;
#147 = DIRECTION ( 'NONE',  ( 1.000000000000000000, -1.734723475976807094E-16, 0.000000000000000000 ) ) ;
#148 = AXIS2_PLACEMENT_3D ( 'NONE', #132, #4, #38 ) ;
#149 = EDGE_CURVE ( 'NONE', #191, #143, #74, .T. ) ;
#150 = DIRECTION ( 'NONE',  ( 1.000000000000000000, 0.000000000000000000, 0.000000000000000000 ) ) ;
#151 = FACE_OUTER_BOUND ( 'NONE', #96, .T. ) ;
#152 = AXIS2_PLACEMENT_3D ( 'NONE', #85, #126, #150 ) ;
#153 = DIRECTION ( 'NONE',  ( 0.7071067811865474617, 0.7071067811865474617, 0.000000000000000000 ) ) ;
#154 = PRODUCT_RELATED_PRODUCT_CATEGORY ( 'detail', '', ( #83 ) ) ;
#155 = LINE ( 'NONE', #255, #60 ) ;
#156 = ORIENTED_EDGE ( 'NONE', *, *, #188, .T. ) ;
#157 = VECTOR ( 'NONE', #11, 1000.000000000000000 ) ;
#158 = DIRECTION ( 'NONE',  ( -0.000000000000000000, -0.000000000000000000, 1.000000000000000000 ) ) ;
#159 = LINE ( 'NONE', #203, #122 ) ;
#160 = VERTEX_POINT ( 'NONE', #97 ) ;
#161 = ORIENTED_EDGE ( 'NONE', *, *, #75, .F. ) ;
#162 = VERTEX_POINT ( 'NONE', #194 ) ;
#163 = VERTEX_POINT ( 'NONE', #250 ) ;
#164 = ORIENTED_EDGE ( 'NONE', *, *, #75, .T. ) ;
#165 = ORIENTED_EDGE ( 'NONE', *, *, #258, .F. ) ;
#166 = CARTESIAN_POINT ( 'NONE',  ( -5.000000000000000888, -5.000000000000000888, -2.000000000000000000 ) ) ;
#167 = VECTOR ( 'NONE', #264, 1000.000000000000000 ) ;
#168 = CARTESIAN_POINT ( 'NONE',  ( 0.000000000000000000, 0.000000000000000000, 4.000000000000000000 ) ) ;
#169 = ADVANCED_FACE ( 'NONE', ( #71 ), #199, .F. ) ;
#170 = APPROVAL ( #297, 'UNSPECIFIED' ) ;
#171 = FACE_OUTER_BOUND ( 'NONE', #283, .T. ) ;
#172 = PLANE ( 'NONE',  #213 ) ;
#173 = EDGE_CURVE ( 'NONE', #184, #13, #276, .T. ) ;
#174 = DATE_AND_TIME ( #176, #295 ) ;
#175 = COORDINATED_UNIVERSAL_TIME_OFFSET ( 8, 0, .BEHIND. ) ;
#176 = CALENDAR_DATE ( 2026, 4, 7 ) ;
#177 = DIRECTION ( 'NONE',  ( 0.7071067811865474617, 0.7071067811865474617, 0.000000000000000000 ) ) ;
#178 = CC_DESIGN_PERSON_AND_ORGANIZATION_ASSIGNMENT ( #273, #274, ( #201 ) ) ;
#179 = AXIS2_PLACEMENT_3D ( 'NONE', #279, #252, #229 ) ;
#180 = EDGE_CURVE ( 'NONE', #162, #15, #127, .T. ) ;
#181 =( NAMED_UNIT ( * ) SI_UNIT ( $, .STERADIAN. ) SOLID_ANGLE_UNIT ( ) );
#182 = VECTOR ( 'NONE', #236, 1000.000000000000000 ) ;
#183 = PLANE ( 'NONE',  #139 ) ;
#184 = VERTEX_POINT ( 'NONE', #18 ) ;
#185 = ORIENTED_EDGE ( 'NONE', *, *, #2, .F. ) ;
#186 = CARTESIAN_POINT ( 'NONE',  ( -4.999999999999999112, 4.999999999999999112, 0.000000000000000000 ) ) ;
#187 = ORIENTED_EDGE ( 'NONE', *, *, #87, .F. ) ;
#188 = EDGE_CURVE ( 'NONE', #160, #67, #119, .T. ) ;
#189 = AXIS2_PLACEMENT_3D ( 'NONE', #73, #220, #153 ) ;
#190 = FACE_OUTER_BOUND ( 'NONE', #210, .T. ) ;
#191 = VERTEX_POINT ( 'NONE', #293 ) ;
#192 = CARTESIAN_POINT ( 'NONE',  ( 0.000000000000000000, 0.000000000000000000, 1.000000000000000000 ) ) ;
#193 = AXIS2_PLACEMENT_3D ( 'NONE', #233, #114, #144 ) ;
#194 = CARTESIAN_POINT ( 'NONE',  ( 2.121320343559642829, 2.121320343559643273, 1.000000000000000000 ) ) ;
#195 = DIRECTION ( 'NONE',  ( -0.7071067811865474617, -0.7071067811865474617, 0.000000000000000000 ) ) ;
#196 = APPROVAL_DATE_TIME ( #246, #110 ) ;
#197 = PERSON_AND_ORGANIZATION ( #270, #40 ) ;
#198 = DATE_AND_TIME ( #226, #253 ) ;
#199 = PLANE ( 'NONE',  #204 ) ;
#200 = EDGE_CURVE ( 'NONE', #13, #184, #290, .T. ) ;
#201 = PRODUCT_DEFINITION_FORMATION_WITH_SPECIFIED_SOURCE ( 'ANY', '', #83, .NOT_KNOWN. ) ;
#202 = ADVANCED_FACE ( 'NONE', ( #171 ), #172, .F. ) ;
#203 = CARTESIAN_POINT ( 'NONE',  ( 5.000000000000000000, 4.999999999999999112, -2.000000000000000000 ) ) ;
#204 = AXIS2_PLACEMENT_3D ( 'NONE', #131, #80, #177 ) ;
#205 = CARTESIAN_POINT ( 'NONE',  ( 0.000000000000000000, 0.000000000000000000, -2.000000000000000000 ) ) ;
#206 = CARTESIAN_POINT ( 'NONE',  ( 2.121320343559642829, 2.121320343559643273, 4.000000000000000000 ) ) ;
#207 = ADVANCED_FACE ( 'NONE', ( #121 ), #320, .F. ) ;
#208 = ORIENTED_EDGE ( 'NONE', *, *, #173, .T. ) ;
#209 = LINE ( 'NONE', #284, #261 ) ;
#210 = EDGE_LOOP ( 'NONE', ( #141, #310, #93, #42 ) ) ;
#211 = ORIENTED_EDGE ( 'NONE', *, *, #149, .F. ) ;
#212 = EDGE_LOOP ( 'NONE', ( #281, #62, #288, #46 ) ) ;
#213 = AXIS2_PLACEMENT_3D ( 'NONE', #271, #147, #21 ) ;
#214 = DIRECTION ( 'NONE',  ( 0.000000000000000000, -0.000000000000000000, 1.000000000000000000 ) ) ;
#215 = ADVANCED_FACE ( 'NONE', ( #256 ), #183, .T. ) ;
#216 = LINE ( 'NONE', #235, #182 ) ;
#217 = DIRECTION ( 'NONE',  ( 1.734723475976807094E-16, 1.000000000000000000, -0.000000000000000000 ) ) ;
#218 = CC_DESIGN_DATE_AND_TIME_ASSIGNMENT ( #30, #104, ( #56 ) ) ;
#219 = LOCAL_TIME ( 15, 19, 20.00000000000000000, #125 ) ;
#220 = DIRECTION ( 'NONE',  ( 0.000000000000000000, 0.000000000000000000, 1.000000000000000000 ) ) ;
#221 = COORDINATED_UNIVERSAL_TIME_OFFSET ( 8, 0, .BEHIND. ) ;
#222 = PERSON_AND_ORGANIZATION ( #270, #40 ) ;
#223 = PERSON_AND_ORGANIZATION ( #270, #40 ) ;
#224 = DIRECTION ( 'NONE',  ( -0.7071067811865474617, -0.7071067811865474617, 0.000000000000000000 ) ) ;
#225 = APPLICATION_CONTEXT ( 'configuration controlled 3d designs of mechanical parts and assemblies' ) ;
#226 = CALENDAR_DATE ( 2026, 4, 7 ) ;
#227 = LINE ( 'NONE', #251, #272 ) ;
#228 =( LENGTH_UNIT ( ) NAMED_UNIT ( * ) SI_UNIT ( .MILLI., .METRE. ) );
#229 = DIRECTION ( 'NONE',  ( 0.7071067811865474617, 0.7071067811865474617, 0.000000000000000000 ) ) ;
#230 = ORIENTED_EDGE ( 'NONE', *, *, #280, .T. ) ;
#231 = ORIENTED_EDGE ( 'NONE', *, *, #188, .F. ) ;
#232 = EDGE_CURVE ( 'NONE', #309, #163, #137, .T. ) ;
#233 = CARTESIAN_POINT ( 'NONE',  ( 5.000000000000000000, 4.999999999999999112, -2.000000000000000000 ) ) ;
#234 = EDGE_LOOP ( 'NONE', ( #69, #211, #112, #138 ) ) ;
#235 = CARTESIAN_POINT ( 'NONE',  ( 2.121320343559642829, 2.121320343559643273, 4.000000000000000000 ) ) ;
#236 = DIRECTION ( 'NONE',  ( 0.000000000000000000, -0.000000000000000000, -1.000000000000000000 ) ) ;
#237 = CC_DESIGN_APPROVAL ( #19, ( #56 ) ) ;
#238 = CC_DESIGN_PERSON_AND_ORGANIZATION_ASSIGNMENT ( #223, #101, ( #56 ) ) ;
#239 = LINE ( 'NONE', #186, #3 ) ;
#240 = DIRECTION ( 'NONE',  ( 0.000000000000000000, 0.000000000000000000, 1.000000000000000000 ) ) ;
#241 = LINE ( 'NONE', #267, #266 ) ;
#242 = APPROVAL_DATE_TIME ( #198, #19 ) ;
#243 = CC_DESIGN_SECURITY_CLASSIFICATION ( #28, ( #201 ) ) ;
#244 = EDGE_CURVE ( 'NONE', #10, #163, #5, .T. ) ;
#245 = DATE_TIME_ROLE ( 'classification_date' ) ;
#246 = DATE_AND_TIME ( #321, #300 ) ;
#247 = DIRECTION ( 'NONE',  ( 0.000000000000000000, -1.000000000000000000, -0.000000000000000000 ) ) ;
#248 = AXIS2_PLACEMENT_3D ( 'NONE', #314, #95, #39 ) ;
#249 = CALENDAR_DATE ( 2026, 4, 7 ) ;
#250 = CARTESIAN_POINT ( 'NONE',  ( 5.000000000000000000, 4.999999999999999112, 0.000000000000000000 ) ) ;
#251 = CARTESIAN_POINT ( 'NONE',  ( 5.000000000000000000, 4.999999999999999112, -2.000000000000000000 ) ) ;
#252 = DIRECTION ( 'NONE',  ( 0.000000000000000000, 0.000000000000000000, 1.000000000000000000 ) ) ;
#253 = LOCAL_TIME ( 15, 19, 20.00000000000000000, #25 ) ;
#254 = EDGE_LOOP ( 'NONE', ( #17, #185, #161, #47 ) ) ;
#255 = CARTESIAN_POINT ( 'NONE',  ( 4.999999999999999112, -5.000000000000000888, -2.000000000000000000 ) ) ;
#256 = FACE_OUTER_BOUND ( 'NONE', #63, .T. ) ;
#257 = FACE_OUTER_BOUND ( 'NONE', #234, .T. ) ;
#258 = EDGE_CURVE ( 'NONE', #15, #162, #313, .T. ) ;
#259 = CARTESIAN_POINT ( 'NONE',  ( -2.121320343559642829, -2.121320343559642829, 1.000000000000000000 ) ) ;
#260 = ORIENTED_EDGE ( 'NONE', *, *, #200, .F. ) ;
#261 = VECTOR ( 'NONE', #45, 1000.000000000000000 ) ;
#262 = LINE ( 'NONE', #166, #167 ) ;
#263 = ORIENTED_EDGE ( 'NONE', *, *, #133, .T. ) ;
#264 = DIRECTION ( 'NONE',  ( -0.000000000000000000, -0.000000000000000000, 1.000000000000000000 ) ) ;
#265 = CARTESIAN_POINT ( 'NONE',  ( 4.999999999999999112, -5.000000000000000888, -2.000000000000000000 ) ) ;
#266 = VECTOR ( 'NONE', #299, 1000.000000000000000 ) ;
#267 = CARTESIAN_POINT ( 'NONE',  ( -2.121320343559642829, -2.121320343559642829, 4.000000000000000000 ) ) ;
#268 = CARTESIAN_POINT ( 'NONE',  ( 5.000000000000000000, 4.999999999999999112, 0.000000000000000000 ) ) ;
#269 = CC_DESIGN_PERSON_AND_ORGANIZATION_ASSIGNMENT ( #222, #76, ( #83 ) ) ;
#270 = PERSON ( 'UNSPECIFIED', 'UNSPECIFIED', 'UNSPECIFIED', ('UNSPECIFIED'), ('UNSPECIFIED'), ('UNSPECIFIED') ) ;
#271 = CARTESIAN_POINT ( 'NONE',  ( -4.999999999999999112, 4.999999999999999112, -2.000000000000000000 ) ) ;
#272 = VECTOR ( 'NONE', #34, 1000.000000000000000 ) ;
#273 = PERSON_AND_ORGANIZATION ( #270, #40 ) ;
#274 = PERSON_AND_ORGANIZATION_ROLE ( 'design_supplier' ) ;
#275 = DIRECTION ( 'NONE',  ( 0.000000000000000000, 0.000000000000000000, 1.000000000000000000 ) ) ;
#276 = CIRCLE ( 'NONE', #86, 3.000000000000000444 ) ;
#277 = DATE_AND_TIME ( #130, #219 ) ;
#278 =( NAMED_UNIT ( * ) PLANE_ANGLE_UNIT ( ) SI_UNIT ( $, .RADIAN. ) );
#279 = CARTESIAN_POINT ( 'NONE',  ( 0.000000000000000000, 0.000000000000000000, 1.000000000000000000 ) ) ;
#280 = EDGE_CURVE ( 'NONE', #67, #309, #227, .T. ) ;
#281 = ORIENTED_EDGE ( 'NONE', *, *, #244, .T. ) ;
#282 = CC_DESIGN_PERSON_AND_ORGANIZATION_ASSIGNMENT ( #197, #294, ( #201 ) ) ;
#283 = EDGE_LOOP ( 'NONE', ( #6, #187, #231, #315 ) ) ;
#284 = CARTESIAN_POINT ( 'NONE',  ( -4.999999999999999112, 4.999999999999999112, -2.000000000000000000 ) ) ;
#285 = VERTEX_POINT ( 'NONE', #305 ) ;
#286 = AXIS2_PLACEMENT_3D ( 'NONE', #99, #247, #301 ) ;
#287 = CYLINDRICAL_SURFACE ( 'NONE', #323, 3.000000000000000444 ) ;
#288 = ORIENTED_EDGE ( 'NONE', *, *, #280, .F. ) ;
#289 = CARTESIAN_POINT ( 'NONE',  ( -5.000000000000000888, -5.000000000000000888, 0.000000000000000000 ) ) ;
#290 = CIRCLE ( 'NONE', #189, 3.000000000000000444 ) ;
#291 = DIRECTION ( 'NONE',  ( 0.000000000000000000, -0.000000000000000000, -1.000000000000000000 ) ) ;
#292 = EDGE_CURVE ( 'NONE', #309, #285, #159, .T. ) ;
#293 = CARTESIAN_POINT ( 'NONE',  ( 4.999999999999999112, -5.000000000000000888, 0.000000000000000000 ) ) ;
#294 = PERSON_AND_ORGANIZATION_ROLE ( 'creator' ) ;
#295 = LOCAL_TIME ( 15, 19, 20.00000000000000000, #175 ) ;
#296 = ADVANCED_FACE ( 'NONE', ( #32 ), #134, .T. ) ;
#297 = APPROVAL_STATUS ( 'not_yet_approved' ) ;
#298 = PERSON_AND_ORGANIZATION ( #270, #40 ) ;
#299 = DIRECTION ( 'NONE',  ( 0.000000000000000000, -0.000000000000000000, -1.000000000000000000 ) ) ;
#300 = LOCAL_TIME ( 15, 19, 20.00000000000000000, #221 ) ;
#301 = DIRECTION ( 'NONE',  ( 0.000000000000000000, 0.000000000000000000, -1.000000000000000000 ) ) ;
#302 = DIRECTION ( 'NONE',  ( -8.673617379884035472E-17, -1.000000000000000000, 0.000000000000000000 ) ) ;
#303 = DIRECTION ( 'NONE',  ( -0.000000000000000000, -0.000000000000000000, 1.000000000000000000 ) ) ;
#304 = CC_DESIGN_APPROVAL ( #170, ( #201 ) ) ;
#305 = CARTESIAN_POINT ( 'NONE',  ( 4.999999999999999112, -5.000000000000000888, -2.000000000000000000 ) ) ;
#306 = LINE ( 'NONE', #88, #157 ) ;
#307 = ORIENTED_EDGE ( 'NONE', *, *, #292, .T. ) ;
#308 = ORIENTED_EDGE ( 'NONE', *, *, #258, .T. ) ;
#309 = VERTEX_POINT ( 'NONE', #84 ) ;
#310 = ORIENTED_EDGE ( 'NONE', *, *, #316, .F. ) ;
#311 = DIRECTION ( 'NONE',  ( 0.000000000000000000, 1.000000000000000000, 0.000000000000000000 ) ) ;
#312 = ORIENTED_EDGE ( 'NONE', *, *, #36, .F. ) ;
#313 = CIRCLE ( 'NONE', #179, 3.000000000000000444 ) ;
#314 = CARTESIAN_POINT ( 'NONE',  ( 0.000000000000000000, 0.000000000000000000, 0.000000000000000000 ) ) ;
#315 = ORIENTED_EDGE ( 'NONE', *, *, #2, .T. ) ;
#316 = EDGE_CURVE ( 'NONE', #285, #191, #155, .T. ) ;
#317 = CARTESIAN_POINT ( 'NONE',  ( 0.000000000000000000, 0.000000000000000000, 4.000000000000000000 ) ) ;
#318 = VECTOR ( 'NONE', #303, 1000.000000000000000 ) ;
#319 = PRODUCT_DEFINITION_SHAPE ( 'NONE', 'NONE',  #56 ) ;
#320 = PLANE ( 'NONE',  #286 ) ;
#321 = CALENDAR_DATE ( 2026, 4, 7 ) ;
#322 = PERSON_AND_ORGANIZATION ( #270, #40 ) ;
#323 = AXIS2_PLACEMENT_3D ( 'NONE', #317, #48, #195 ) ;
#324 = COORDINATED_UNIVERSAL_TIME_OFFSET ( 8, 0, .BEHIND. ) ;
#325 = DIRECTION ( 'NONE',  ( -1.000000000000000000, 0.000000000000000000, 0.000000000000000000 ) ) ;
ENDSEC;
END-ISO-10303-21;
