ISO-10303-21;
HEADER;
FILE_DESCRIPTION (( 'STEP AP203' ),
    '1' );
FILE_NAME ('point_03_y45_Rx0_Ry45_Rz0.step',
    '2026-07-04T22:24:52',
    ( '' ),
    ( '' ),
    'SwSTEP 2.0',
    'SolidWorks 2026',
    '' );
FILE_SCHEMA (( 'CONFIG_CONTROL_DESIGN' ));
ENDSEC;

DATA;
#1 = CARTESIAN_POINT ( 'NONE',  ( 5.000000000000000000, 4.999999999999999112, -2.000000000000000000 ) ) ;
#2 = PERSON_AND_ORGANIZATION ( #94, #102 ) ;
#3 = CARTESIAN_POINT ( 'NONE',  ( -1.414213562373095145, 0.000000000000000000, 4.328427124746191623 ) ) ;
#4 = CARTESIAN_POINT ( 'NONE',  ( 4.999999999999999112, -5.000000000000000888, -2.000000000000000000 ) ) ;
#5 = ADVANCED_FACE ( 'NONE', ( #61 ), #174, .F. ) ;
#6 = DIRECTION ( 'NONE',  ( -0.7071067811865474617, 0.000000000000000000, 0.7071067811865474617 ) ) ;
#7 = CARTESIAN_POINT ( 'NONE',  ( 5.000000000000000000, 4.999999999999999112, 0.000000000000000000 ) ) ;
#8 = VECTOR ( 'NONE', #77, 1000.000000000000000 ) ;
#9 = CARTESIAN_POINT ( 'NONE',  ( 4.999999999999999112, -5.000000000000000888, -2.000000000000000000 ) ) ;
#10 = CARTESIAN_POINT ( 'NONE',  ( 5.000000000000000000, 4.999999999999999112, -2.000000000000000000 ) ) ;
#11 = CARTESIAN_POINT ( 'NONE',  ( 4.999999999999999112, -5.000000000000000888, 0.000000000000000000 ) ) ;
#12 = APPROVAL ( #131, 'UNSPECIFIED' ) ;
#13 = ORIENTED_EDGE ( 'NONE', *, *, #155, .F. ) ;
#14 = APPLICATION_CONTEXT ( 'configuration controlled 3d designs of mechanical parts and assemblies' ) ;
#15 = CC_DESIGN_APPROVAL ( #12, ( #71 ) ) ;
#16 = ORIENTED_EDGE ( 'NONE', *, *, #265, .T. ) ;
#17 = DIRECTION ( 'NONE',  ( 0.7071067811865475727, 0.000000000000000000, 0.7071067811865475727 ) ) ;
#18 = EDGE_CURVE ( 'NONE', #124, #266, #118, .T. ) ;
#19 = ORIENTED_EDGE ( 'NONE', *, *, #169, .F. ) ;
#20 = COORDINATED_UNIVERSAL_TIME_OFFSET ( 8, 0, .BEHIND. ) ;
#21 = AXIS2_PLACEMENT_3D ( 'NONE', #92, #97, #126 ) ;
#22 = PERSON_AND_ORGANIZATION ( #94, #102 ) ;
#23 = EDGE_CURVE ( 'NONE', #242, #149, #316, .T. ) ;
#24 = DIRECTION ( 'NONE',  ( 0.7071067811865474617, 0.000000000000000000, -0.7071067811865474617 ) ) ;
#25 = CC_DESIGN_DATE_AND_TIME_ASSIGNMENT ( #202, #134, ( #71 ) ) ;
#26 = CARTESIAN_POINT ( 'NONE',  ( 0.7071067811865475727, 0.000000000000000000, 2.207106781186547906 ) ) ;
#27 = DIRECTION ( 'NONE',  ( -1.000000000000000000, 0.000000000000000000, 0.000000000000000000 ) ) ;
#28 = PRODUCT_DEFINITION_FORMATION_WITH_SPECIFIED_SOURCE ( 'ANY', '', #110, .NOT_KNOWN. ) ;
#29 = ORIENTED_EDGE ( 'NONE', *, *, #106, .T. ) ;
#30 = CARTESIAN_POINT ( 'NONE',  ( -4.999999999999999112, 4.999999999999999112, -2.000000000000000000 ) ) ;
#31 = FACE_OUTER_BOUND ( 'NONE', #314, .T. ) ;
#32 = PRODUCT_RELATED_PRODUCT_CATEGORY ( 'detail', '', ( #110 ) ) ;
#33 = LINE ( 'NONE', #11, #91 ) ;
#34 = PERSON_AND_ORGANIZATION ( #94, #102 ) ;
#35 = ORIENTED_EDGE ( 'NONE', *, *, #84, .T. ) ;
#36 = AXIS2_PLACEMENT_3D ( 'NONE', #81, #78, #161 ) ;
#37 = ORIENTED_EDGE ( 'NONE', *, *, #84, .F. ) ;
#38 = COORDINATED_UNIVERSAL_TIME_OFFSET ( 8, 0, .BEHIND. ) ;
#39 = CARTESIAN_POINT ( 'NONE',  ( 2.828427124746190291, 0.000000000000000000, 4.328427124746191623 ) ) ;
#40 = DIRECTION ( 'NONE',  ( 0.000000000000000000, 0.000000000000000000, 1.000000000000000000 ) ) ;
#41 =( NAMED_UNIT ( * ) PLANE_ANGLE_UNIT ( ) SI_UNIT ( $, .RADIAN. ) );
#42 = ORIENTED_EDGE ( 'NONE', *, *, #231, .T. ) ;
#43 = FACE_OUTER_BOUND ( 'NONE', #116, .T. ) ;
#44 = SECURITY_CLASSIFICATION_LEVEL ( 'unclassified' ) ;
#45 = EDGE_CURVE ( 'NONE', #197, #266, #33, .T. ) ;
#46 = CC_DESIGN_APPROVAL ( #207, ( #296 ) ) ;
#47 = CLOSED_SHELL ( 'NONE', ( #254, #139, #226, #211 ) ) ;
#48 = AXIS2_PLACEMENT_3D ( 'NONE', #89, #120, #115 ) ;
#49 = PERSON_AND_ORGANIZATION ( #94, #102 ) ;
#50 = FACE_OUTER_BOUND ( 'NONE', #96, .T. ) ;
#51 = DIRECTION ( 'NONE',  ( 0.7071067811865474617, 0.000000000000000000, -0.7071067811865474617 ) ) ;
#52 = CARTESIAN_POINT ( 'NONE',  ( 0.7071067811865475727, 0.000000000000000000, 6.449747468305834452 ) ) ;
#53 = CARTESIAN_POINT ( 'NONE',  ( 0.7071067811865475727, 0.000000000000000000, 2.207106781186547906 ) ) ;
#54 = CARTESIAN_POINT ( 'NONE',  ( -4.999999999999999112, 4.999999999999999112, 0.000000000000000000 ) ) ;
#55 = CARTESIAN_POINT ( 'NONE',  ( -5.000000000000000888, -5.000000000000000888, -2.000000000000000000 ) ) ;
#56 = APPROVAL_PERSON_ORGANIZATION ( #273, #12, #128 ) ;
#57 = EDGE_LOOP ( 'NONE', ( #113, #180 ) ) ;
#58 = ORIENTED_EDGE ( 'NONE', *, *, #181, .F. ) ;
#59 = PRODUCT_DEFINITION_SHAPE ( 'NONE', 'NONE',  #296 ) ;
#60 = VERTEX_POINT ( 'NONE', #289 ) ;
#61 = FACE_OUTER_BOUND ( 'NONE', #135, .T. ) ;
#62 = EDGE_CURVE ( 'NONE', #266, #242, #309, .T. ) ;
#63 = AXIS2_PLACEMENT_3D ( 'NONE', #130, #228, #325 ) ;
#64 = UNCERTAINTY_MEASURE_WITH_UNIT (LENGTH_MEASURE( 1.000000000000000082E-05 ), #221, 'distance_accuracy_value', 'NONE');
#65 = ORIENTED_EDGE ( 'NONE', *, *, #62, .F. ) ;
#66 = CARTESIAN_POINT ( 'NONE',  ( 5.000000000000000000, 4.999999999999999112, -2.000000000000000000 ) ) ;
#67 = ORIENTED_EDGE ( 'NONE', *, *, #45, .T. ) ;
#68 = PLANE ( 'NONE',  #63 ) ;
#69 = ADVANCED_FACE ( 'NONE', ( #141 ), #311, .F. ) ;
#70 = FACE_OUTER_BOUND ( 'NONE', #193, .T. ) ;
#71 = SECURITY_CLASSIFICATION ( '', '', #44 ) ;
#72 = APPROVAL_ROLE ( '' ) ;
#73 = FACE_OUTER_BOUND ( 'NONE', #198, .T. ) ;
#74 = ADVANCED_FACE ( 'NONE', ( #31 ), #145, .F. ) ;
#75 = CALENDAR_DATE ( 2026, 4, 7 ) ;
#76 = DIRECTION ( 'NONE',  ( 0.7071067811865475727, 0.000000000000000000, 0.7071067811865475727 ) ) ;
#77 = DIRECTION ( 'NONE',  ( 1.734723475976807094E-16, 1.000000000000000000, -0.000000000000000000 ) ) ;
#78 = DIRECTION ( 'NONE',  ( 0.000000000000000000, 0.000000000000000000, -1.000000000000000000 ) ) ;
#79 = VECTOR ( 'NONE', #140, 1000.000000000000000 ) ;
#80 = MANIFOLD_SOLID_BREP ( 'base', #172 ) ;
#81 = CARTESIAN_POINT ( 'NONE',  ( 0.000000000000000000, 0.000000000000000000, -2.000000000000000000 ) ) ;
#82 = ORIENTED_EDGE ( 'NONE', *, *, #169, .T. ) ;
#83 = DIRECTION ( 'NONE',  ( 0.000000000000000000, 0.000000000000000000, -1.000000000000000000 ) ) ;
#84 = EDGE_CURVE ( 'NONE', #262, #177, #151, .T. ) ;
#85 = DIRECTION ( 'NONE',  ( 0.7071067811865474617, 0.000000000000000000, -0.7071067811865474617 ) ) ;
#86 = CC_DESIGN_PERSON_AND_ORGANIZATION_ASSIGNMENT ( #248, #204, ( #28 ) ) ;
#87 = LINE ( 'NONE', #66, #277 ) ;
#88 = DIRECTION ( 'NONE',  ( -8.673617379884035472E-17, -1.000000000000000000, 0.000000000000000000 ) ) ;
#89 = CARTESIAN_POINT ( 'NONE',  ( 2.828427124746190291, 0.000000000000000000, 4.328427124746191623 ) ) ;
#90 = DIRECTION ( 'NONE',  ( 1.000000000000000000, -0.000000000000000000, -0.000000000000000000 ) ) ;
#91 = VECTOR ( 'NONE', #217, 1000.000000000000000 ) ;
#92 = CARTESIAN_POINT ( 'NONE',  ( 2.828427124746190291, 0.000000000000000000, 4.328427124746191623 ) ) ;
#93 = CC_DESIGN_PERSON_AND_ORGANIZATION_ASSIGNMENT ( #251, #323, ( #28 ) ) ;
#94 = PERSON ( 'UNSPECIFIED', 'UNSPECIFIED', 'UNSPECIFIED', ('UNSPECIFIED'), ('UNSPECIFIED'), ('UNSPECIFIED') ) ;
#95 = LINE ( 'NONE', #117, #215 ) ;
#96 = EDGE_LOOP ( 'NONE', ( #284, #272, #170, #179 ) ) ;
#97 = DIRECTION ( 'NONE',  ( -0.7071067811865475727, -0.000000000000000000, -0.7071067811865475727 ) ) ;
#98 = SHAPE_DEFINITION_REPRESENTATION ( #59, #234 ) ;
#99 = COORDINATED_UNIVERSAL_TIME_OFFSET ( 8, 0, .BEHIND. ) ;
#100 = EDGE_CURVE ( 'NONE', #165, #175, #302, .T. ) ;
#101 = DIRECTION ( 'NONE',  ( -0.7071067811865475727, -0.000000000000000000, -0.7071067811865475727 ) ) ;
#102 = ORGANIZATION ( 'UNSPECIFIED', 'UNSPECIFIED', '' ) ;
#103 = DIRECTION ( 'NONE',  ( -0.7071067811865474617, -0.000000000000000000, -0.7071067811865474617 ) ) ;
#104 = LINE ( 'NONE', #304, #8 ) ;
#105 = PLANE ( 'NONE',  #176 ) ;
#106 = EDGE_CURVE ( 'NONE', #321, #197, #260, .T. ) ;
#107 = PLANE ( 'NONE',  #129 ) ;
#108 = AXIS2_PLACEMENT_3D ( 'NONE', #163, #101, #6 ) ;
#109 = ORIENTED_EDGE ( 'NONE', *, *, #183, .F. ) ;
#110 = PRODUCT ( 'point_03_y45_Rx0_Ry45_Rz0', 'point_03_y45_Rx0_Ry45_Rz0', '', ( #253 ) ) ;
#111 = VECTOR ( 'NONE', #188, 1000.000000000000000 ) ;
#112 = EDGE_CURVE ( 'NONE', #60, #308, #281, .T. ) ;
#113 = ORIENTED_EDGE ( 'NONE', *, *, #270, .T. ) ;
#114 = CC_DESIGN_DATE_AND_TIME_ASSIGNMENT ( #125, #264, ( #296 ) ) ;
#115 = DIRECTION ( 'NONE',  ( 0.7071067811865474617, 0.000000000000000000, -0.7071067811865474617 ) ) ;
#116 = EDGE_LOOP ( 'NONE', ( #16, #192, #283, #150 ) ) ;
#117 = CARTESIAN_POINT ( 'NONE',  ( 5.000000000000000000, 4.999999999999999112, 0.000000000000000000 ) ) ;
#118 = LINE ( 'NONE', #218, #236 ) ;
#119 = DESIGN_CONTEXT ( 'detailed design', #14, 'design' ) ;
#120 = DIRECTION ( 'NONE',  ( 0.7071067811865475727, 0.000000000000000000, 0.7071067811865475727 ) ) ;
#121 = CC_DESIGN_APPROVAL ( #241, ( #28 ) ) ;
#122 = APPROVAL_STATUS ( 'not_yet_approved' ) ;
#123 = CYLINDRICAL_SURFACE ( 'NONE', #21, 3.000000000000000444 ) ;
#124 = VERTEX_POINT ( 'NONE', #55 ) ;
#125 = DATE_AND_TIME ( #271, #153 ) ;
#126 = DIRECTION ( 'NONE',  ( -0.7071067811865474617, 0.000000000000000000, 0.7071067811865474617 ) ) ;
#127 = ORIENTED_EDGE ( 'NONE', *, *, #287, .F. ) ;
#128 = APPROVAL_ROLE ( '' ) ;
#129 = AXIS2_PLACEMENT_3D ( 'NONE', #30, #303, #166 ) ;
#130 = CARTESIAN_POINT ( 'NONE',  ( 5.000000000000000000, 4.999999999999999112, -2.000000000000000000 ) ) ;
#131 = APPROVAL_STATUS ( 'not_yet_approved' ) ;
#132 = VECTOR ( 'NONE', #138, 1000.000000000000000 ) ;
#133 = COORDINATED_UNIVERSAL_TIME_OFFSET ( 8, 0, .BEHIND. ) ;
#134 = DATE_TIME_ROLE ( 'classification_date' ) ;
#135 = EDGE_LOOP ( 'NONE', ( #148, #13, #37, #317 ) ) ;
#136 = COORDINATED_UNIVERSAL_TIME_OFFSET ( 8, 0, .BEHIND. ) ;
#137 = CARTESIAN_POINT ( 'NONE',  ( 4.999999999999999112, -5.000000000000000888, 0.000000000000000000 ) ) ;
#138 = DIRECTION ( 'NONE',  ( -0.000000000000000000, -0.000000000000000000, 1.000000000000000000 ) ) ;
#139 = ADVANCED_FACE ( 'NONE', ( #50 ), #212, .T. ) ;
#140 = DIRECTION ( 'NONE',  ( -0.000000000000000000, -0.000000000000000000, 1.000000000000000000 ) ) ;
#141 = FACE_OUTER_BOUND ( 'NONE', #315, .T. ) ;
#142 = AXIS2_PLACEMENT_3D ( 'NONE', #10, #258, #83 ) ;
#143 = CARTESIAN_POINT ( 'NONE',  ( 0.7071067811865475727, 0.000000000000000000, 2.207106781186547906 ) ) ;
#144 = CIRCLE ( 'NONE', #295, 3.000000000000000444 ) ;
#145 = PLANE ( 'NONE',  #185 ) ;
#146 = ADVANCED_FACE ( 'NONE', ( #214 ), #306, .T. ) ;
#147 = CARTESIAN_POINT ( 'NONE',  ( 5.000000000000000000, 4.999999999999999112, 0.000000000000000000 ) ) ;
#148 = ORIENTED_EDGE ( 'NONE', *, *, #23, .T. ) ;
#149 = VERTEX_POINT ( 'NONE', #7 ) ;
#150 = ORIENTED_EDGE ( 'NONE', *, *, #155, .T. ) ;
#151 = LINE ( 'NONE', #1, #111 ) ;
#152 = PERSON_AND_ORGANIZATION ( #94, #102 ) ;
#153 = LOCAL_TIME ( 15, 24, 52.00000000000000000, #136 ) ;
#154 = CALENDAR_DATE ( 2026, 4, 7 ) ;
#155 = EDGE_CURVE ( 'NONE', #177, #149, #256, .T. ) ;
#156 = APPLICATION_PROTOCOL_DEFINITION ( 'international standard', 'config_control_design', 1994, #160 ) ;
#157 = PERSON_AND_ORGANIZATION_ROLE ( 'classification_officer' ) ;
#158 = CC_DESIGN_SECURITY_CLASSIFICATION ( #71, ( #28 ) ) ;
#159 = CIRCLE ( 'NONE', #319, 3.000000000000000444 ) ;
#160 = APPLICATION_CONTEXT ( 'configuration controlled 3d designs of mechanical parts and assemblies' ) ;
#161 = DIRECTION ( 'NONE',  ( -1.000000000000000000, 0.000000000000000000, 0.000000000000000000 ) ) ;
#162 = VECTOR ( 'NONE', #103, 1000.000000000000114 ) ;
#163 = CARTESIAN_POINT ( 'NONE',  ( 2.828427124746190291, 0.000000000000000000, 4.328427124746191623 ) ) ;
#164 = DIRECTION ( 'NONE',  ( -0.7071067811865474617, -0.000000000000000000, -0.7071067811865474617 ) ) ;
#165 = VERTEX_POINT ( 'NONE', #282 ) ;
#166 = DIRECTION ( 'NONE',  ( 1.734723475976807094E-16, 1.000000000000000000, 0.000000000000000000 ) ) ;
#167 = DIRECTION ( 'NONE',  ( 1.734723475976807094E-16, 1.000000000000000000, -0.000000000000000000 ) ) ;
#168 = LOCAL_TIME ( 15, 24, 52.00000000000000000, #99 ) ;
#169 = EDGE_CURVE ( 'NONE', #308, #175, #144, .T. ) ;
#170 = ORIENTED_EDGE ( 'NONE', *, *, #100, .T. ) ;
#171 = ORIENTED_EDGE ( 'NONE', *, *, #100, .F. ) ;
#172 = CLOSED_SHELL ( 'NONE', ( #196, #5, #237, #69, #146, #74 ) ) ;
#173 = EDGE_LOOP ( 'NONE', ( #320, #186, #224, #238 ) ) ;
#174 = PLANE ( 'NONE',  #142 ) ;
#175 = VERTEX_POINT ( 'NONE', #3 ) ;
#176 = AXIS2_PLACEMENT_3D ( 'NONE', #209, #280, #51 ) ;
#177 = VERTEX_POINT ( 'NONE', #232 ) ;
#178 = CC_DESIGN_PERSON_AND_ORGANIZATION_ASSIGNMENT ( #22, #157, ( #71 ) ) ;
#179 = ORIENTED_EDGE ( 'NONE', *, *, #181, .T. ) ;
#180 = ORIENTED_EDGE ( 'NONE', *, *, #287, .T. ) ;
#181 = EDGE_CURVE ( 'NONE', #175, #308, #225, .T. ) ;
#182 = APPROVAL_DATE_TIME ( #230, #12 ) ;
#183 = EDGE_CURVE ( 'NONE', #321, #124, #210, .T. ) ;
#184 = CARTESIAN_POINT ( 'NONE',  ( 0.000000000000000000, 0.000000000000000000, 0.000000000000000000 ) ) ;
#185 = AXIS2_PLACEMENT_3D ( 'NONE', #194, #288, #249 ) ;
#186 = ORIENTED_EDGE ( 'NONE', *, *, #305, .F. ) ;
#187 = FACE_OUTER_BOUND ( 'NONE', #57, .T. ) ;
#188 = DIRECTION ( 'NONE',  ( 1.000000000000000000, -0.000000000000000000, -0.000000000000000000 ) ) ;
#189 = DIRECTION ( 'NONE',  ( 0.7071067811865474617, 0.000000000000000000, -0.7071067811865474617 ) ) ;
#190 = CARTESIAN_POINT ( 'NONE',  ( 4.949747468305833564, 3.673940397442061347E-16, 2.207106781186548794 ) ) ;
#191 = FACE_OUTER_BOUND ( 'NONE', #173, .T. ) ;
#192 = ORIENTED_EDGE ( 'NONE', *, *, #106, .F. ) ;
#193 = EDGE_LOOP ( 'NONE', ( #127, #200, #82, #171 ) ) ;
#194 = CARTESIAN_POINT ( 'NONE',  ( 0.000000000000000000, 0.000000000000000000, 0.000000000000000000 ) ) ;
#195 = DIRECTION ( 'NONE',  ( 0.000000000000000000, 1.000000000000000000, 0.000000000000000000 ) ) ;
#196 = ADVANCED_FACE ( 'NONE', ( #191 ), #107, .F. ) ;
#197 = VERTEX_POINT ( 'NONE', #137 ) ;
#198 = EDGE_LOOP ( 'NONE', ( #58, #19 ) ) ;
#199 = VECTOR ( 'NONE', #219, 1000.000000000000000 ) ;
#200 = ORIENTED_EDGE ( 'NONE', *, *, #112, .T. ) ;
#201 = DATE_AND_TIME ( #154, #259 ) ;
#202 = DATE_AND_TIME ( #229, #168 ) ;
#203 = APPLICATION_PROTOCOL_DEFINITION ( 'international standard', 'config_control_design', 1994, #14 ) ;
#204 = PERSON_AND_ORGANIZATION_ROLE ( 'design_supplier' ) ;
#205 = CARTESIAN_POINT ( 'NONE',  ( -4.999999999999999112, 4.999999999999999112, -2.000000000000000000 ) ) ;
#206 = CARTESIAN_POINT ( 'NONE',  ( -4.999999999999999112, 4.999999999999999112, 0.000000000000000000 ) ) ;
#207 = APPROVAL ( #122, 'UNSPECIFIED' ) ;
#208 = APPROVAL_PERSON_ORGANIZATION ( #2, #241, #72 ) ;
#209 = CARTESIAN_POINT ( 'NONE',  ( 2.828427124746190291, 0.000000000000000000, 4.328427124746191623 ) ) ;
#210 = LINE ( 'NONE', #4, #239 ) ;
#211 = ADVANCED_FACE ( 'NONE', ( #73 ), #257, .F. ) ;
#212 = CYLINDRICAL_SURFACE ( 'NONE', #108, 3.000000000000000444 ) ;
#213 = CC_DESIGN_PERSON_AND_ORGANIZATION_ASSIGNMENT ( #34, #274, ( #296 ) ) ;
#214 = FACE_OUTER_BOUND ( 'NONE', #268, .T. ) ;
#215 = VECTOR ( 'NONE', #88, 1000.000000000000000 ) ;
#216 = DIRECTION ( 'NONE',  ( 0.7071067811865475727, 0.000000000000000000, 0.7071067811865475727 ) ) ;
#217 = DIRECTION ( 'NONE',  ( -1.000000000000000000, 0.000000000000000000, 0.000000000000000000 ) ) ;
#218 = CARTESIAN_POINT ( 'NONE',  ( -5.000000000000000888, -5.000000000000000888, -2.000000000000000000 ) ) ;
#219 = DIRECTION ( 'NONE',  ( -0.000000000000000000, -0.000000000000000000, 1.000000000000000000 ) ) ;
#220 = DIRECTION ( 'NONE',  ( -0.000000000000000000, -0.000000000000000000, 1.000000000000000000 ) ) ;
#221 =( LENGTH_UNIT ( ) NAMED_UNIT ( * ) SI_UNIT ( .MILLI., .METRE. ) );
#222 = ORIENTED_EDGE ( 'NONE', *, *, #183, .T. ) ;
#223 = CARTESIAN_POINT ( 'NONE',  ( 4.999999999999999112, -5.000000000000000888, -2.000000000000000000 ) ) ;
#224 = ORIENTED_EDGE ( 'NONE', *, *, #231, .F. ) ;
#225 = CIRCLE ( 'NONE', #269, 3.000000000000000444 ) ;
#226 = ADVANCED_FACE ( 'NONE', ( #187 ), #105, .T. ) ;
#227 = APPROVAL_DATE_TIME ( #278, #241 ) ;
#228 = DIRECTION ( 'NONE',  ( -1.000000000000000000, 8.673617379884035472E-17, 0.000000000000000000 ) ) ;
#229 = CALENDAR_DATE ( 2026, 4, 7 ) ;
#230 = DATE_AND_TIME ( #301, #300 ) ;
#231 = EDGE_CURVE ( 'NONE', #124, #262, #104, .T. ) ;
#232 = CARTESIAN_POINT ( 'NONE',  ( 5.000000000000000000, 4.999999999999999112, -2.000000000000000000 ) ) ;
#233 = CARTESIAN_POINT ( 'NONE',  ( 4.999999999999999112, -5.000000000000000888, -2.000000000000000000 ) ) ;
#234 = ADVANCED_BREP_SHAPE_REPRESENTATION ( 'point_03_y45_Rx0_Ry45_Rz0', ( #80, #291, #235 ), #246 ) ;
#235 = AXIS2_PLACEMENT_3D ( 'NONE', #184, #40, #297 ) ;
#236 = VECTOR ( 'NONE', #220, 1000.000000000000000 ) ;
#237 = ADVANCED_FACE ( 'NONE', ( #43 ), #68, .F. ) ;
#238 = ORIENTED_EDGE ( 'NONE', *, *, #18, .T. ) ;
#239 = VECTOR ( 'NONE', #27, 1000.000000000000000 ) ;
#240 = DIRECTION ( 'NONE',  ( 0.7071067811865474617, 0.000000000000000000, -0.7071067811865474617 ) ) ;
#241 = APPROVAL ( #252, 'UNSPECIFIED' ) ;
#242 = VERTEX_POINT ( 'NONE', #206 ) ;
#243 = LINE ( 'NONE', #294, #199 ) ;
#244 = ORIENTED_EDGE ( 'NONE', *, *, #265, .F. ) ;
#245 = ORIENTED_EDGE ( 'NONE', *, *, #18, .F. ) ;
#246 =( GEOMETRIC_REPRESENTATION_CONTEXT ( 3 ) GLOBAL_UNCERTAINTY_ASSIGNED_CONTEXT ( ( #64 ) ) GLOBAL_UNIT_ASSIGNED_CONTEXT ( ( #221, #41, #298 ) ) REPRESENTATION_CONTEXT ( 'NONE', 'WORKASPACE' ) );
#247 = ORIENTED_EDGE ( 'NONE', *, *, #23, .F. ) ;
#248 = PERSON_AND_ORGANIZATION ( #94, #102 ) ;
#249 = DIRECTION ( 'NONE',  ( -1.000000000000000000, 0.000000000000000000, 0.000000000000000000 ) ) ;
#250 = CIRCLE ( 'NONE', #48, 3.000000000000000444 ) ;
#251 = PERSON_AND_ORGANIZATION ( #94, #102 ) ;
#252 = APPROVAL_STATUS ( 'not_yet_approved' ) ;
#253 = MECHANICAL_CONTEXT ( 'NONE', #160, 'mechanical' ) ;
#254 = ADVANCED_FACE ( 'NONE', ( #70 ), #123, .T. ) ;
#255 = DIRECTION ( 'NONE',  ( 0.7071067811865475727, 0.000000000000000000, 0.7071067811865475727 ) ) ;
#256 = LINE ( 'NONE', #279, #79 ) ;
#257 = PLANE ( 'NONE',  #307 ) ;
#258 = DIRECTION ( 'NONE',  ( 0.000000000000000000, -1.000000000000000000, -0.000000000000000000 ) ) ;
#259 = LOCAL_TIME ( 15, 24, 52.00000000000000000, #38 ) ;
#260 = LINE ( 'NONE', #233, #132 ) ;
#261 = VECTOR ( 'NONE', #90, 1000.000000000000000 ) ;
#262 = VERTEX_POINT ( 'NONE', #205 ) ;
#263 = ORIENTED_EDGE ( 'NONE', *, *, #310, .T. ) ;
#264 = DATE_TIME_ROLE ( 'creation_date' ) ;
#265 = EDGE_CURVE ( 'NONE', #149, #197, #95, .T. ) ;
#266 = VERTEX_POINT ( 'NONE', #290 ) ;
#267 = DIRECTION ( 'NONE',  ( -8.673617379884035472E-17, -1.000000000000000000, 0.000000000000000000 ) ) ;
#268 = EDGE_LOOP ( 'NONE', ( #42, #35, #263, #222 ) ) ;
#269 = AXIS2_PLACEMENT_3D ( 'NONE', #26, #255, #24 ) ;
#270 = EDGE_CURVE ( 'NONE', #165, #60, #250, .T. ) ;
#271 = CALENDAR_DATE ( 2026, 4, 7 ) ;
#272 = ORIENTED_EDGE ( 'NONE', *, *, #270, .F. ) ;
#273 = PERSON_AND_ORGANIZATION ( #94, #102 ) ;
#274 = PERSON_AND_ORGANIZATION_ROLE ( 'creator' ) ;
#275 = VECTOR ( 'NONE', #167, 1000.000000000000000 ) ;
#276 = PERSON_AND_ORGANIZATION_ROLE ( 'design_owner' ) ;
#277 = VECTOR ( 'NONE', #267, 1000.000000000000000 ) ;
#278 = DATE_AND_TIME ( #75, #292 ) ;
#279 = CARTESIAN_POINT ( 'NONE',  ( 5.000000000000000000, 4.999999999999999112, -2.000000000000000000 ) ) ;
#280 = DIRECTION ( 'NONE',  ( 0.7071067811865475727, 0.000000000000000000, 0.7071067811865475727 ) ) ;
#281 = LINE ( 'NONE', #190, #162 ) ;
#282 = CARTESIAN_POINT ( 'NONE',  ( 0.7071067811865475727, 0.000000000000000000, 6.449747468305834452 ) ) ;
#283 = ORIENTED_EDGE ( 'NONE', *, *, #310, .F. ) ;
#284 = ORIENTED_EDGE ( 'NONE', *, *, #112, .F. ) ;
#285 = DIRECTION ( 'NONE',  ( 0.000000000000000000, -0.000000000000000000, 1.000000000000000000 ) ) ;
#286 = APPROVAL_PERSON_ORGANIZATION ( #152, #207, #324 ) ;
#287 = EDGE_CURVE ( 'NONE', #60, #165, #159, .T. ) ;
#288 = DIRECTION ( 'NONE',  ( 0.000000000000000000, 0.000000000000000000, -1.000000000000000000 ) ) ;
#289 = CARTESIAN_POINT ( 'NONE',  ( 4.949747468305833564, 3.673940397442061347E-16, 2.207106781186548794 ) ) ;
#290 = CARTESIAN_POINT ( 'NONE',  ( -5.000000000000000888, -5.000000000000000888, 0.000000000000000000 ) ) ;
#291 = MANIFOLD_SOLID_BREP ( 'part', #47 ) ;
#292 = LOCAL_TIME ( 15, 24, 52.00000000000000000, #133 ) ;
#293 = ORIENTED_EDGE ( 'NONE', *, *, #45, .F. ) ;
#294 = CARTESIAN_POINT ( 'NONE',  ( -4.999999999999999112, 4.999999999999999112, -2.000000000000000000 ) ) ;
#295 = AXIS2_PLACEMENT_3D ( 'NONE', #53, #216, #189 ) ;
#296 = PRODUCT_DEFINITION ( 'UNKNOWN', '', #28, #119 ) ;
#297 = DIRECTION ( 'NONE',  ( 1.000000000000000000, 0.000000000000000000, 0.000000000000000000 ) ) ;
#298 =( NAMED_UNIT ( * ) SI_UNIT ( $, .STERADIAN. ) SOLID_ANGLE_UNIT ( ) );
#299 = VECTOR ( 'NONE', #164, 1000.000000000000114 ) ;
#300 = LOCAL_TIME ( 15, 24, 52.00000000000000000, #20 ) ;
#301 = CALENDAR_DATE ( 2026, 4, 7 ) ;
#302 = LINE ( 'NONE', #52, #299 ) ;
#303 = DIRECTION ( 'NONE',  ( 1.000000000000000000, -1.734723475976807094E-16, 0.000000000000000000 ) ) ;
#304 = CARTESIAN_POINT ( 'NONE',  ( -4.999999999999999112, 4.999999999999999112, -2.000000000000000000 ) ) ;
#305 = EDGE_CURVE ( 'NONE', #262, #242, #243, .T. ) ;
#306 = PLANE ( 'NONE',  #36 ) ;
#307 = AXIS2_PLACEMENT_3D ( 'NONE', #143, #76, #240 ) ;
#308 = VERTEX_POINT ( 'NONE', #313 ) ;
#309 = LINE ( 'NONE', #54, #275 ) ;
#310 = EDGE_CURVE ( 'NONE', #177, #321, #87, .T. ) ;
#311 = PLANE ( 'NONE',  #318 ) ;
#312 = CC_DESIGN_PERSON_AND_ORGANIZATION_ASSIGNMENT ( #49, #276, ( #110 ) ) ;
#313 = CARTESIAN_POINT ( 'NONE',  ( 2.828427124746190291, 3.673940397442061347E-16, 0.08578643762690608965 ) ) ;
#314 = EDGE_LOOP ( 'NONE', ( #65, #293, #244, #247 ) ) ;
#315 = EDGE_LOOP ( 'NONE', ( #67, #245, #109, #29 ) ) ;
#316 = LINE ( 'NONE', #147, #261 ) ;
#317 = ORIENTED_EDGE ( 'NONE', *, *, #305, .T. ) ;
#318 = AXIS2_PLACEMENT_3D ( 'NONE', #9, #195, #285 ) ;
#319 = AXIS2_PLACEMENT_3D ( 'NONE', #39, #17, #85 ) ;
#320 = ORIENTED_EDGE ( 'NONE', *, *, #62, .T. ) ;
#321 = VERTEX_POINT ( 'NONE', #223 ) ;
#322 = APPROVAL_DATE_TIME ( #201, #207 ) ;
#323 = PERSON_AND_ORGANIZATION_ROLE ( 'creator' ) ;
#324 = APPROVAL_ROLE ( '' ) ;
#325 = DIRECTION ( 'NONE',  ( -8.673617379884035472E-17, -1.000000000000000000, 0.000000000000000000 ) ) ;
ENDSEC;
END-ISO-10303-21;
